<svg width="398" height="153" viewBox="0 0 398 153" fill="none" xmlns="http://www.w3.org/2000/svg">
<rect x="158" y="30" width="65.6843" height="31" rx="4" fill="url(#paint0_linear_59_28)"/>
<rect x="272" y="12" width="126" height="65" rx="4" fill="url(#paint1_linear_59_28)"/>
<rect width="50.1721" height="50" transform="matrix(0.867013 -0.498285 2.21316e-08 1 43.5001 50)" fill="url(#paint2_linear_59_28)"/>
<rect width="50.1721" height="50" transform="matrix(0.867013 0.498285 -2.21316e-08 1 0 25)" fill="url(#paint3_linear_59_28)"/>
<rect width="50.1721" height="50.1721" transform="matrix(0.867014 -0.498285 0.867013 0.498285 0 25)" fill="url(#paint4_linear_59_28)"/>
<path d="M18.081 130H16.696L20.7017 119.091H22.0653L26.071 130H24.6861L21.4261 120.817H21.3409L18.081 130ZM18.5923 125.739H24.1747V126.911H18.5923V125.739ZM29.0913 119.091V130H27.7702V119.091H29.0913ZM38.8778 130.17C38.1959 130.17 37.594 129.998 37.072 129.654C36.55 129.306 36.1416 128.816 35.8469 128.184C35.5521 127.548 35.4047 126.797 35.4047 125.93C35.4047 125.071 35.5521 124.325 35.8469 123.693C36.1416 123.061 36.5518 122.573 37.0773 122.228C37.6029 121.884 38.2101 121.712 38.8991 121.712C39.4317 121.712 39.8525 121.8 40.1615 121.978C40.474 122.152 40.7119 122.351 40.8753 122.575C41.0422 122.795 41.1718 122.976 41.2641 123.118H41.3707V119.091H42.6278V130H41.4133V128.743H41.2641C41.1718 128.892 41.0404 129.08 40.8699 129.308C40.6995 129.531 40.4562 129.732 40.1402 129.909C39.8241 130.083 39.4033 130.17 38.8778 130.17ZM39.0482 129.041C39.5525 129.041 39.9786 128.91 40.3266 128.647C40.6746 128.381 40.9392 128.013 41.1203 127.544C41.3014 127.072 41.392 126.527 41.392 125.909C41.392 125.298 41.3032 124.764 41.1256 124.306C40.9481 123.844 40.6853 123.485 40.3373 123.23C39.9893 122.971 39.5596 122.841 39.0482 122.841C38.5155 122.841 38.0716 122.978 37.7165 123.251C37.365 123.521 37.1004 123.888 36.9229 124.354C36.7488 124.815 36.6618 125.334 36.6618 125.909C36.6618 126.491 36.7506 127.021 36.9282 127.496C37.1093 127.969 37.3756 128.345 37.7272 128.626C38.0823 128.903 38.5226 129.041 39.0482 129.041ZM47.5123 130.192C46.9939 130.192 46.5233 130.094 46.1008 129.899C45.6782 129.7 45.3426 129.414 45.094 129.041C44.8454 128.665 44.7211 128.21 44.7211 127.678C44.7211 127.209 44.8135 126.829 44.9981 126.538C45.1828 126.243 45.4296 126.012 45.7385 125.845C46.0475 125.678 46.3884 125.554 46.7613 125.472C47.1377 125.387 47.5159 125.32 47.8959 125.27C48.393 125.206 48.7961 125.158 49.105 125.126C49.4175 125.091 49.6448 125.032 49.7868 124.95C49.9324 124.869 50.0052 124.727 50.0052 124.524V124.482C50.0052 123.956 49.8614 123.548 49.5738 123.256C49.2897 122.965 48.8582 122.82 48.2794 122.82C47.6792 122.82 47.2087 122.951 46.8678 123.214C46.5269 123.477 46.2872 123.757 46.1487 124.055L44.9555 123.629C45.1686 123.132 45.4527 122.745 45.8078 122.468C46.1665 122.187 46.5571 121.992 46.9797 121.882C47.4058 121.768 47.8248 121.712 48.2368 121.712C48.4996 121.712 48.8014 121.744 49.1423 121.808C49.4868 121.868 49.8188 121.994 50.1384 122.186C50.4616 122.377 50.7297 122.667 50.9427 123.054C51.1558 123.441 51.2623 123.96 51.2623 124.609V130H50.0052V128.892H49.9413C49.8561 129.07 49.714 129.26 49.5152 129.462C49.3163 129.664 49.0518 129.837 48.7215 129.979C48.3912 130.121 47.9882 130.192 47.5123 130.192ZM47.7041 129.062C48.2013 129.062 48.6203 128.965 48.9612 128.77C49.3057 128.574 49.5649 128.322 49.7389 128.013C49.9165 127.704 50.0052 127.379 50.0052 127.038V125.888C49.952 125.952 49.8348 126.01 49.6537 126.064C49.4761 126.113 49.2702 126.158 49.0358 126.197C48.805 126.232 48.5795 126.264 48.3593 126.293C48.1427 126.317 47.9669 126.339 47.8319 126.357C47.5052 126.399 47.1998 126.468 46.9157 126.564C46.6352 126.657 46.4079 126.797 46.2339 126.985C46.0635 127.17 45.9782 127.422 45.9782 127.741C45.9782 128.178 46.1398 128.509 46.463 128.732C46.7897 128.952 47.2034 129.062 47.7041 129.062ZM53.5568 133.068V121.818H54.7713V123.118H54.9205C55.0128 122.976 55.1406 122.795 55.304 122.575C55.4709 122.351 55.7088 122.152 56.0178 121.978C56.3303 121.8 56.7528 121.712 57.2855 121.712C57.9744 121.712 58.5817 121.884 59.1072 122.228C59.6328 122.573 60.043 123.061 60.3377 123.693C60.6325 124.325 60.7798 125.071 60.7798 125.93C60.7798 126.797 60.6325 127.548 60.3377 128.184C60.043 128.816 59.6346 129.306 59.1126 129.654C58.5906 129.998 57.9886 130.17 57.3068 130.17C56.7813 130.17 56.3604 130.083 56.0444 129.909C55.7283 129.732 55.4851 129.531 55.3146 129.308C55.1442 129.08 55.0128 128.892 54.9205 128.743H54.8139V133.068H53.5568ZM54.7926 125.909C54.7926 126.527 54.8832 127.072 55.0643 127.544C55.2454 128.013 55.5099 128.381 55.858 128.647C56.206 128.91 56.6321 129.041 57.1364 129.041C57.6619 129.041 58.1005 128.903 58.4521 128.626C58.8072 128.345 59.0735 127.969 59.2511 127.496C59.4322 127.021 59.5227 126.491 59.5227 125.909C59.5227 125.334 59.4339 124.815 59.2564 124.354C59.0824 123.888 58.8178 123.521 58.4627 123.251C58.1112 122.978 57.669 122.841 57.1364 122.841C56.625 122.841 56.1953 122.971 55.8473 123.23C55.4993 123.485 55.2365 123.844 55.0589 124.306C54.8814 124.764 54.7926 125.298 54.7926 125.909ZM62.6974 133.068V121.818H63.9119V123.118H64.0611C64.1534 122.976 64.2813 122.795 64.4446 122.575C64.6115 122.351 64.8494 122.152 65.1584 121.978C65.4709 121.8 65.8935 121.712 66.4261 121.712C67.1151 121.712 67.7223 121.884 68.2479 122.228C68.7734 122.573 69.1836 123.061 69.4783 123.693C69.7731 124.325 69.9205 125.071 69.9205 125.93C69.9205 126.797 69.7731 127.548 69.4783 128.184C69.1836 128.816 68.7752 129.306 68.2532 129.654C67.7312 129.998 67.1293 130.17 66.4474 130.17C65.9219 130.17 65.5011 130.083 65.185 129.909C64.869 129.732 64.6257 129.531 64.4553 129.308C64.2848 129.08 64.1534 128.892 64.0611 128.743H63.9545V133.068H62.6974ZM63.9332 125.909C63.9332 126.527 64.0238 127.072 64.2049 127.544C64.386 128.013 64.6506 128.381 64.9986 128.647C65.3466 128.91 65.7727 129.041 66.277 129.041C66.8026 129.041 67.2411 128.903 67.5927 128.626C67.9478 128.345 68.2141 127.969 68.3917 127.496C68.5728 127.021 68.6634 126.491 68.6634 125.909C68.6634 125.334 68.5746 124.815 68.397 124.354C68.223 123.888 67.9585 123.521 67.6033 123.251C67.2518 122.978 66.8097 122.841 66.277 122.841C65.7656 122.841 65.3359 122.971 64.9879 123.23C64.6399 123.485 64.3771 123.844 64.1996 124.306C64.022 124.764 63.9332 125.298 63.9332 125.909Z" fill="white"/>
<path d="M172.339 91V82.8182H173.553V84.054H173.638C173.787 83.6491 174.057 83.3207 174.448 83.0685C174.839 82.8164 175.279 82.6903 175.769 82.6903C175.861 82.6903 175.977 82.6921 176.115 82.6957C176.254 82.6992 176.358 82.7045 176.429 82.7116V83.9901C176.387 83.9794 176.289 83.9634 176.136 83.9421C175.987 83.9173 175.829 83.9048 175.662 83.9048C175.265 83.9048 174.91 83.9883 174.597 84.1552C174.288 84.3185 174.043 84.5458 173.862 84.837C173.684 85.1246 173.596 85.4531 173.596 85.8224V91H172.339ZM181.101 91.1705C180.313 91.1705 179.633 90.9964 179.061 90.6484C178.493 90.2969 178.054 89.8068 177.745 89.1783C177.44 88.5462 177.287 87.8111 177.287 86.973C177.287 86.1349 177.44 85.3963 177.745 84.7571C178.054 84.1143 178.484 83.6136 179.034 83.255C179.588 82.8928 180.235 82.7116 180.973 82.7116C181.399 82.7116 181.82 82.7827 182.236 82.9247C182.651 83.0668 183.029 83.2976 183.37 83.6172C183.711 83.9332 183.983 84.3523 184.185 84.8743C184.388 85.3963 184.489 86.0391 184.489 86.8026V87.3352H178.182V86.2486H183.21C183.21 85.7869 183.118 85.375 182.933 85.0128C182.752 84.6506 182.493 84.3647 182.156 84.1552C181.822 83.9457 181.428 83.8409 180.973 83.8409C180.472 83.8409 180.039 83.9652 179.673 84.2138C179.311 84.4588 179.032 84.7784 178.837 85.1726C178.642 85.5668 178.544 85.9893 178.544 86.4403V87.1648C178.544 87.7827 178.651 88.3065 178.864 88.7362C179.08 89.1623 179.38 89.4872 179.764 89.7109C180.148 89.9311 180.593 90.0412 181.101 90.0412C181.431 90.0412 181.73 89.995 181.996 89.9027C182.266 89.8068 182.498 89.6648 182.694 89.4766C182.889 89.2848 183.04 89.0469 183.146 88.7628L184.361 89.1037C184.233 89.5156 184.018 89.8778 183.716 90.1903C183.415 90.4993 183.042 90.7408 182.598 90.9148C182.154 91.0852 181.655 91.1705 181.101 91.1705ZM192.197 84.6506L191.067 84.9702C190.996 84.782 190.891 84.5991 190.753 84.4215C190.618 84.2404 190.433 84.0913 190.199 83.9741C189.965 83.8569 189.665 83.7983 189.299 83.7983C188.798 83.7983 188.381 83.9137 188.047 84.1445C187.717 84.3718 187.552 84.6612 187.552 85.0128C187.552 85.3253 187.665 85.5721 187.893 85.7532C188.12 85.9343 188.475 86.0852 188.958 86.206L190.172 86.5043C190.904 86.6818 191.449 86.9535 191.808 87.3192C192.166 87.6815 192.346 88.1484 192.346 88.7202C192.346 89.1889 192.211 89.608 191.941 89.9773C191.674 90.3466 191.302 90.6378 190.822 90.8509C190.343 91.0639 189.785 91.1705 189.15 91.1705C188.315 91.1705 187.624 90.9893 187.078 90.6271C186.531 90.2649 186.184 89.7358 186.039 89.0398L187.232 88.7415C187.346 89.1818 187.561 89.5121 187.877 89.7322C188.196 89.9524 188.613 90.0625 189.128 90.0625C189.714 90.0625 190.179 89.9382 190.524 89.6896C190.872 89.4375 191.046 89.1357 191.046 88.7841C191.046 88.5 190.947 88.2621 190.748 88.0703C190.549 87.875 190.243 87.7294 189.831 87.6335L188.468 87.3139C187.719 87.1364 187.168 86.8612 186.817 86.4883C186.469 86.1119 186.295 85.6413 186.295 85.0767C186.295 84.6151 186.424 84.2067 186.683 83.8516C186.946 83.4964 187.303 83.2177 187.754 83.0153C188.209 82.8129 188.723 82.7116 189.299 82.7116C190.108 82.7116 190.744 82.8892 191.206 83.2443C191.671 83.5994 192.001 84.0682 192.197 84.6506ZM199.394 87.6548V82.8182H200.651V91H199.394V89.6151H199.309C199.117 90.0305 198.819 90.3839 198.414 90.6751C198.009 90.9627 197.498 91.1065 196.88 91.1065C196.369 91.1065 195.914 90.9947 195.516 90.771C195.119 90.5437 194.806 90.2028 194.579 89.7482C194.352 89.2901 194.238 88.7131 194.238 88.017V82.8182H195.495V87.9318C195.495 88.5284 195.662 89.0043 195.996 89.3594C196.333 89.7145 196.763 89.892 197.285 89.892C197.597 89.892 197.915 89.8121 198.238 89.6523C198.565 89.4925 198.838 89.2475 199.059 88.9173C199.282 88.587 199.394 88.1662 199.394 87.6548ZM204.211 80.0909V91H202.954V80.0909H204.211ZM210.072 82.8182V83.8835H205.832V82.8182H210.072ZM207.067 80.858H208.324V88.6562C208.324 89.0114 208.376 89.2777 208.479 89.4553C208.585 89.6293 208.72 89.7464 208.884 89.8068C209.051 89.8636 209.226 89.892 209.411 89.892C209.55 89.892 209.663 89.8849 209.752 89.8707C209.841 89.853 209.912 89.8388 209.965 89.8281L210.221 90.9574C210.136 90.9893 210.017 91.0213 209.864 91.0533C209.711 91.0888 209.518 91.1065 209.283 91.1065C208.928 91.1065 208.58 91.0302 208.239 90.8775C207.902 90.7248 207.621 90.4922 207.398 90.1797C207.177 89.8672 207.067 89.473 207.067 88.9972V80.858Z" fill="white"/>
<path d="M325.875 103.655V98.8182H327.132V107H325.875V105.615H325.789C325.598 106.031 325.299 106.384 324.895 106.675C324.49 106.963 323.978 107.107 323.36 107.107C322.849 107.107 322.395 106.995 321.997 106.771C321.599 106.544 321.287 106.203 321.059 105.748C320.832 105.29 320.718 104.713 320.718 104.017V98.8182H321.976V103.932C321.976 104.528 322.142 105.004 322.476 105.359C322.814 105.714 323.243 105.892 323.765 105.892C324.078 105.892 324.396 105.812 324.719 105.652C325.045 105.493 325.319 105.248 325.539 104.917C325.763 104.587 325.875 104.166 325.875 103.655ZM335.23 100.651L334.1 100.97C334.029 100.782 333.925 100.599 333.786 100.422C333.651 100.24 333.467 100.091 333.232 99.9741C332.998 99.8569 332.698 99.7983 332.332 99.7983C331.831 99.7983 331.414 99.9137 331.08 100.145C330.75 100.372 330.585 100.661 330.585 101.013C330.585 101.325 330.698 101.572 330.926 101.753C331.153 101.934 331.508 102.085 331.991 102.206L333.206 102.504C333.937 102.682 334.482 102.953 334.841 103.319C335.2 103.681 335.379 104.148 335.379 104.72C335.379 105.189 335.244 105.608 334.974 105.977C334.708 106.347 334.335 106.638 333.855 106.851C333.376 107.064 332.818 107.17 332.183 107.17C331.348 107.17 330.658 106.989 330.111 106.627C329.564 106.265 329.218 105.736 329.072 105.04L330.265 104.741C330.379 105.182 330.594 105.512 330.91 105.732C331.229 105.952 331.647 106.062 332.162 106.062C332.747 106.062 333.213 105.938 333.557 105.69C333.905 105.437 334.079 105.136 334.079 104.784C334.079 104.5 333.98 104.262 333.781 104.07C333.582 103.875 333.277 103.729 332.865 103.634L331.501 103.314C330.752 103.136 330.201 102.861 329.85 102.488C329.502 102.112 329.328 101.641 329.328 101.077C329.328 100.615 329.457 100.207 329.717 99.8516C329.979 99.4964 330.336 99.2177 330.787 99.0153C331.242 98.8129 331.757 98.7116 332.332 98.7116C333.142 98.7116 333.777 98.8892 334.239 99.2443C334.704 99.5994 335.034 100.068 335.23 100.651ZM340.702 107.17C339.913 107.17 339.233 106.996 338.661 106.648C338.093 106.297 337.655 105.807 337.346 105.178C337.04 104.546 336.888 103.811 336.888 102.973C336.888 102.135 337.04 101.396 337.346 100.757C337.655 100.114 338.084 99.6136 338.635 99.255C339.189 98.8928 339.835 98.7116 340.574 98.7116C341 98.7116 341.421 98.7827 341.836 98.9247C342.252 99.0668 342.63 99.2976 342.971 99.6172C343.312 99.9332 343.583 100.352 343.786 100.874C343.988 101.396 344.089 102.039 344.089 102.803V103.335H337.783V102.249H342.811C342.811 101.787 342.719 101.375 342.534 101.013C342.353 100.651 342.094 100.365 341.756 100.155C341.422 99.9457 341.028 99.8409 340.574 99.8409C340.073 99.8409 339.64 99.9652 339.274 100.214C338.912 100.459 338.633 100.778 338.438 101.173C338.242 101.567 338.145 101.989 338.145 102.44V103.165C338.145 103.783 338.251 104.306 338.464 104.736C338.681 105.162 338.981 105.487 339.365 105.711C339.748 105.931 340.194 106.041 340.702 106.041C341.032 106.041 341.33 105.995 341.596 105.903C341.866 105.807 342.099 105.665 342.294 105.477C342.49 105.285 342.64 105.047 342.747 104.763L343.962 105.104C343.834 105.516 343.619 105.878 343.317 106.19C343.015 106.499 342.642 106.741 342.198 106.915C341.754 107.085 341.256 107.17 340.702 107.17ZM346.002 107V98.8182H347.216V100.054H347.301C347.451 99.6491 347.72 99.3207 348.111 99.0685C348.502 98.8164 348.942 98.6903 349.432 98.6903C349.524 98.6903 349.64 98.6921 349.778 98.6957C349.917 98.6992 350.022 98.7045 350.093 98.7116V99.9901C350.05 99.9794 349.952 99.9634 349.8 99.9421C349.65 99.9173 349.492 99.9048 349.326 99.9048C348.928 99.9048 348.573 99.9883 348.26 100.155C347.951 100.319 347.706 100.546 347.525 100.837C347.348 101.125 347.259 101.453 347.259 101.822V107H346.002Z" fill="white"/>
<defs>
<linearGradient id="paint0_linear_59_28" x1="194.086" y1="36.7564" x2="191" y2="20" gradientUnits="userSpaceOnUse">
<stop stop-color="#0D6EFD"/>
<stop offset="1" stop-color="#0E4FAE"/>
</linearGradient>
<linearGradient id="paint1_linear_59_28" x1="341.222" y1="26.1667" x2="298.53" y2="50.2247" gradientUnits="userSpaceOnUse">
<stop stop-color="#0D6EFD"/>
<stop offset="1" stop-color="#0E4FAE"/>
</linearGradient>
<linearGradient id="paint2_linear_59_28" x1="59.5969" y1="26.2273" x2="6.68445" y2="64.0776" gradientUnits="userSpaceOnUse">
<stop stop-color="#0D6EFD"/>
<stop offset="1" stop-color="#103B7B"/>
</linearGradient>
<linearGradient id="paint3_linear_59_28" x1="60.2899" y1="-14.1325" x2="-24.4471" y2="-9.04436" gradientUnits="userSpaceOnUse">
<stop stop-color="#0067FF"/>
<stop offset="1" stop-color="#3F8CFF"/>
</linearGradient>
<linearGradient id="paint4_linear_59_28" x1="39.9161" y1="39.9161" x2="36.4464" y2="-19.4741" gradientUnits="userSpaceOnUse">
<stop stop-color="#0D6EFD"/>
<stop offset="1" stop-color="#103B7B"/>
</linearGradient>
</defs>
</svg>
