<svg width="575" height="291" viewBox="0 0 575 291" fill="none" xmlns="http://www.w3.org/2000/svg">
<rect x="385" y="173" width="50.0624" height="25.0312" rx="4" fill="url(#paint0_linear_26_10)"/>
<rect x="130" y="23.6819" width="59.4491" height="25.0312" rx="4" fill="url(#paint1_linear_26_10)"/>
<rect x="130" y="126" width="59.4491" height="25.0312" rx="4" fill="url(#paint2_linear_26_10)"/>
<path d="M140.839 75V66.8182H142.053V68.054H142.138C142.287 67.6491 142.557 67.3207 142.948 67.0685C143.339 66.8164 143.779 66.6903 144.269 66.6903C144.361 66.6903 144.477 66.6921 144.615 66.6957C144.754 66.6992 144.858 66.7045 144.929 66.7116V67.9901C144.887 67.9794 144.789 67.9634 144.636 67.9421C144.487 67.9173 144.329 67.9048 144.162 67.9048C143.765 67.9048 143.41 67.9883 143.097 68.1552C142.788 68.3185 142.543 68.5458 142.362 68.837C142.184 69.1246 142.096 69.4531 142.096 69.8224V75H140.839ZM149.601 75.1705C148.813 75.1705 148.133 74.9964 147.561 74.6484C146.993 74.2969 146.554 73.8068 146.245 73.1783C145.94 72.5462 145.787 71.8111 145.787 70.973C145.787 70.1349 145.94 69.3963 146.245 68.7571C146.554 68.1143 146.984 67.6136 147.534 67.255C148.088 66.8928 148.735 66.7116 149.473 66.7116C149.899 66.7116 150.32 66.7827 150.736 66.9247C151.151 67.0668 151.529 67.2976 151.87 67.6172C152.211 67.9332 152.483 68.3523 152.685 68.8743C152.888 69.3963 152.989 70.0391 152.989 70.8026V71.3352H146.682V70.2486H151.71C151.71 69.7869 151.618 69.375 151.433 69.0128C151.252 68.6506 150.993 68.3647 150.656 68.1552C150.322 67.9457 149.928 67.8409 149.473 67.8409C148.972 67.8409 148.539 67.9652 148.173 68.2138C147.811 68.4588 147.532 68.7784 147.337 69.1726C147.142 69.5668 147.044 69.9893 147.044 70.4403V71.1648C147.044 71.7827 147.151 72.3065 147.364 72.7362C147.58 73.1623 147.88 73.4872 148.264 73.7109C148.648 73.9311 149.093 74.0412 149.601 74.0412C149.931 74.0412 150.23 73.995 150.496 73.9027C150.766 73.8068 150.998 73.6648 151.194 73.4766C151.389 73.2848 151.54 73.0469 151.646 72.7628L152.861 73.1037C152.733 73.5156 152.518 73.8778 152.216 74.1903C151.915 74.4993 151.542 74.7408 151.098 74.9148C150.654 75.0852 150.155 75.1705 149.601 75.1705ZM160.697 68.6506L159.567 68.9702C159.496 68.782 159.391 68.5991 159.253 68.4215C159.118 68.2404 158.933 68.0913 158.699 67.9741C158.465 67.8569 158.165 67.7983 157.799 67.7983C157.298 67.7983 156.881 67.9137 156.547 68.1445C156.217 68.3718 156.052 68.6612 156.052 69.0128C156.052 69.3253 156.165 69.5721 156.393 69.7532C156.62 69.9343 156.975 70.0852 157.458 70.206L158.672 70.5043C159.404 70.6818 159.949 70.9535 160.308 71.3192C160.666 71.6815 160.846 72.1484 160.846 72.7202C160.846 73.1889 160.711 73.608 160.441 73.9773C160.174 74.3466 159.802 74.6378 159.322 74.8509C158.843 75.0639 158.285 75.1705 157.65 75.1705C156.815 75.1705 156.124 74.9893 155.578 74.6271C155.031 74.2649 154.684 73.7358 154.539 73.0398L155.732 72.7415C155.846 73.1818 156.061 73.5121 156.377 73.7322C156.696 73.9524 157.113 74.0625 157.628 74.0625C158.214 74.0625 158.679 73.9382 159.024 73.6896C159.372 73.4375 159.546 73.1357 159.546 72.7841C159.546 72.5 159.447 72.2621 159.248 72.0703C159.049 71.875 158.743 71.7294 158.331 71.6335L156.968 71.3139C156.219 71.1364 155.668 70.8612 155.317 70.4883C154.969 70.1119 154.795 69.6413 154.795 69.0767C154.795 68.6151 154.924 68.2067 155.183 67.8516C155.446 67.4964 155.803 67.2177 156.254 67.0153C156.709 66.8129 157.223 66.7116 157.799 66.7116C158.608 66.7116 159.244 66.8892 159.706 67.2443C160.171 67.5994 160.501 68.0682 160.697 68.6506ZM167.894 71.6548V66.8182H169.151V75H167.894V73.6151H167.809C167.617 74.0305 167.319 74.3839 166.914 74.6751C166.509 74.9627 165.998 75.1065 165.38 75.1065C164.869 75.1065 164.414 74.9947 164.016 74.771C163.619 74.5437 163.306 74.2028 163.079 73.7482C162.852 73.2901 162.738 72.7131 162.738 72.017V66.8182H163.995V71.9318C163.995 72.5284 164.162 73.0043 164.496 73.3594C164.833 73.7145 165.263 73.892 165.785 73.892C166.097 73.892 166.415 73.8121 166.738 73.6523C167.065 73.4925 167.338 73.2475 167.559 72.9173C167.782 72.587 167.894 72.1662 167.894 71.6548ZM172.711 64.0909V75H171.454V64.0909H172.711ZM178.572 66.8182V67.8835H174.332V66.8182H178.572ZM175.567 64.858H176.824V72.6562C176.824 73.0114 176.876 73.2777 176.979 73.4553C177.085 73.6293 177.22 73.7464 177.384 73.8068C177.551 73.8636 177.726 73.892 177.911 73.892C178.05 73.892 178.163 73.8849 178.252 73.8707C178.341 73.853 178.412 73.8388 178.465 73.8281L178.721 74.9574C178.636 74.9893 178.517 75.0213 178.364 75.0533C178.211 75.0888 178.018 75.1065 177.783 75.1065C177.428 75.1065 177.08 75.0302 176.739 74.8775C176.402 74.7248 176.121 74.4922 175.898 74.1797C175.677 73.8672 175.567 73.473 175.567 72.9972V64.858Z" fill="white"/>
<path d="M140.839 177V168.818H142.053V170.054H142.138C142.287 169.649 142.557 169.321 142.948 169.069C143.339 168.816 143.779 168.69 144.269 168.69C144.361 168.69 144.477 168.692 144.615 168.696C144.754 168.699 144.858 168.705 144.929 168.712V169.99C144.887 169.979 144.789 169.963 144.636 169.942C144.487 169.917 144.329 169.905 144.162 169.905C143.765 169.905 143.41 169.988 143.097 170.155C142.788 170.319 142.543 170.546 142.362 170.837C142.184 171.125 142.096 171.453 142.096 171.822V177H140.839ZM149.601 177.17C148.813 177.17 148.133 176.996 147.561 176.648C146.993 176.297 146.554 175.807 146.245 175.178C145.94 174.546 145.787 173.811 145.787 172.973C145.787 172.135 145.94 171.396 146.245 170.757C146.554 170.114 146.984 169.614 147.534 169.255C148.088 168.893 148.735 168.712 149.473 168.712C149.899 168.712 150.32 168.783 150.736 168.925C151.151 169.067 151.529 169.298 151.87 169.617C152.211 169.933 152.483 170.352 152.685 170.874C152.888 171.396 152.989 172.039 152.989 172.803V173.335H146.682V172.249H151.71C151.71 171.787 151.618 171.375 151.433 171.013C151.252 170.651 150.993 170.365 150.656 170.155C150.322 169.946 149.928 169.841 149.473 169.841C148.972 169.841 148.539 169.965 148.173 170.214C147.811 170.459 147.532 170.778 147.337 171.173C147.142 171.567 147.044 171.989 147.044 172.44V173.165C147.044 173.783 147.151 174.306 147.364 174.736C147.58 175.162 147.88 175.487 148.264 175.711C148.648 175.931 149.093 176.041 149.601 176.041C149.931 176.041 150.23 175.995 150.496 175.903C150.766 175.807 150.998 175.665 151.194 175.477C151.389 175.285 151.54 175.047 151.646 174.763L152.861 175.104C152.733 175.516 152.518 175.878 152.216 176.19C151.915 176.499 151.542 176.741 151.098 176.915C150.654 177.085 150.155 177.17 149.601 177.17ZM160.697 170.651L159.567 170.97C159.496 170.782 159.391 170.599 159.253 170.422C159.118 170.24 158.933 170.091 158.699 169.974C158.465 169.857 158.165 169.798 157.799 169.798C157.298 169.798 156.881 169.914 156.547 170.145C156.217 170.372 156.052 170.661 156.052 171.013C156.052 171.325 156.165 171.572 156.393 171.753C156.62 171.934 156.975 172.085 157.458 172.206L158.672 172.504C159.404 172.682 159.949 172.953 160.308 173.319C160.666 173.681 160.846 174.148 160.846 174.72C160.846 175.189 160.711 175.608 160.441 175.977C160.174 176.347 159.802 176.638 159.322 176.851C158.843 177.064 158.285 177.17 157.65 177.17C156.815 177.17 156.124 176.989 155.578 176.627C155.031 176.265 154.684 175.736 154.539 175.04L155.732 174.741C155.846 175.182 156.061 175.512 156.377 175.732C156.696 175.952 157.113 176.062 157.628 176.062C158.214 176.062 158.679 175.938 159.024 175.69C159.372 175.437 159.546 175.136 159.546 174.784C159.546 174.5 159.447 174.262 159.248 174.07C159.049 173.875 158.743 173.729 158.331 173.634L156.968 173.314C156.219 173.136 155.668 172.861 155.317 172.488C154.969 172.112 154.795 171.641 154.795 171.077C154.795 170.615 154.924 170.207 155.183 169.852C155.446 169.496 155.803 169.218 156.254 169.015C156.709 168.813 157.223 168.712 157.799 168.712C158.608 168.712 159.244 168.889 159.706 169.244C160.171 169.599 160.501 170.068 160.697 170.651ZM167.894 173.655V168.818H169.151V177H167.894V175.615H167.809C167.617 176.031 167.319 176.384 166.914 176.675C166.509 176.963 165.998 177.107 165.38 177.107C164.869 177.107 164.414 176.995 164.016 176.771C163.619 176.544 163.306 176.203 163.079 175.748C162.852 175.29 162.738 174.713 162.738 174.017V168.818H163.995V173.932C163.995 174.528 164.162 175.004 164.496 175.359C164.833 175.714 165.263 175.892 165.785 175.892C166.097 175.892 166.415 175.812 166.738 175.652C167.065 175.493 167.338 175.248 167.559 174.917C167.782 174.587 167.894 174.166 167.894 173.655ZM172.711 166.091V177H171.454V166.091H172.711ZM178.572 168.818V169.884H174.332V168.818H178.572ZM175.567 166.858H176.824V174.656C176.824 175.011 176.876 175.278 176.979 175.455C177.085 175.629 177.22 175.746 177.384 175.807C177.551 175.864 177.726 175.892 177.911 175.892C178.05 175.892 178.163 175.885 178.252 175.871C178.341 175.853 178.412 175.839 178.465 175.828L178.721 176.957C178.636 176.989 178.517 177.021 178.364 177.053C178.211 177.089 178.018 177.107 177.783 177.107C177.428 177.107 177.08 177.03 176.739 176.877C176.402 176.725 176.121 176.492 175.898 176.18C175.677 175.867 175.567 175.473 175.567 174.997V166.858Z" fill="white"/>
<path d="M285.875 104.655V99.8182H287.132V108H285.875V106.615H285.789C285.598 107.031 285.299 107.384 284.895 107.675C284.49 107.963 283.978 108.107 283.36 108.107C282.849 108.107 282.395 107.995 281.997 107.771C281.599 107.544 281.287 107.203 281.059 106.748C280.832 106.29 280.718 105.713 280.718 105.017V99.8182H281.976V104.932C281.976 105.528 282.142 106.004 282.476 106.359C282.814 106.714 283.243 106.892 283.765 106.892C284.078 106.892 284.396 106.812 284.719 106.652C285.045 106.493 285.319 106.248 285.539 105.917C285.763 105.587 285.875 105.166 285.875 104.655ZM295.23 101.651L294.1 101.97C294.029 101.782 293.925 101.599 293.786 101.422C293.651 101.24 293.467 101.091 293.232 100.974C292.998 100.857 292.698 100.798 292.332 100.798C291.831 100.798 291.414 100.914 291.08 101.145C290.75 101.372 290.585 101.661 290.585 102.013C290.585 102.325 290.698 102.572 290.926 102.753C291.153 102.934 291.508 103.085 291.991 103.206L293.206 103.504C293.937 103.682 294.482 103.953 294.841 104.319C295.2 104.681 295.379 105.148 295.379 105.72C295.379 106.189 295.244 106.608 294.974 106.977C294.708 107.347 294.335 107.638 293.855 107.851C293.376 108.064 292.818 108.17 292.183 108.17C291.348 108.17 290.658 107.989 290.111 107.627C289.564 107.265 289.218 106.736 289.072 106.04L290.265 105.741C290.379 106.182 290.594 106.512 290.91 106.732C291.229 106.952 291.647 107.062 292.162 107.062C292.747 107.062 293.213 106.938 293.557 106.69C293.905 106.437 294.079 106.136 294.079 105.784C294.079 105.5 293.98 105.262 293.781 105.07C293.582 104.875 293.277 104.729 292.865 104.634L291.501 104.314C290.752 104.136 290.201 103.861 289.85 103.488C289.502 103.112 289.328 102.641 289.328 102.077C289.328 101.615 289.457 101.207 289.717 100.852C289.979 100.496 290.336 100.218 290.787 100.015C291.242 99.8129 291.757 99.7116 292.332 99.7116C293.142 99.7116 293.777 99.8892 294.239 100.244C294.704 100.599 295.034 101.068 295.23 101.651ZM300.702 108.17C299.913 108.17 299.233 107.996 298.661 107.648C298.093 107.297 297.655 106.807 297.346 106.178C297.04 105.546 296.888 104.811 296.888 103.973C296.888 103.135 297.04 102.396 297.346 101.757C297.655 101.114 298.084 100.614 298.635 100.255C299.189 99.8928 299.835 99.7116 300.574 99.7116C301 99.7116 301.421 99.7827 301.836 99.9247C302.252 100.067 302.63 100.298 302.971 100.617C303.312 100.933 303.583 101.352 303.786 101.874C303.988 102.396 304.089 103.039 304.089 103.803V104.335H297.783V103.249H302.811C302.811 102.787 302.719 102.375 302.534 102.013C302.353 101.651 302.094 101.365 301.756 101.155C301.422 100.946 301.028 100.841 300.574 100.841C300.073 100.841 299.64 100.965 299.274 101.214C298.912 101.459 298.633 101.778 298.438 102.173C298.242 102.567 298.145 102.989 298.145 103.44V104.165C298.145 104.783 298.251 105.306 298.464 105.736C298.681 106.162 298.981 106.487 299.365 106.711C299.748 106.931 300.194 107.041 300.702 107.041C301.032 107.041 301.33 106.995 301.596 106.903C301.866 106.807 302.099 106.665 302.294 106.477C302.49 106.285 302.64 106.047 302.747 105.763L303.962 106.104C303.834 106.516 303.619 106.878 303.317 107.19C303.015 107.499 302.642 107.741 302.198 107.915C301.754 108.085 301.256 108.17 300.702 108.17ZM306.002 108V99.8182H307.216V101.054H307.301C307.451 100.649 307.72 100.321 308.111 100.069C308.502 99.8164 308.942 99.6903 309.432 99.6903C309.524 99.6903 309.64 99.6921 309.778 99.6957C309.917 99.6992 310.022 99.7045 310.093 99.7116V100.99C310.05 100.979 309.952 100.963 309.8 100.942C309.65 100.917 309.492 100.905 309.326 100.905C308.928 100.905 308.573 100.988 308.26 101.155C307.951 101.319 307.706 101.546 307.525 101.837C307.348 102.125 307.259 102.453 307.259 102.822V108H306.002Z" fill="white"/>
<path d="M470.348 253.651L469.219 253.97C469.148 253.782 469.043 253.599 468.905 253.422C468.77 253.24 468.585 253.091 468.351 252.974C468.116 252.857 467.816 252.798 467.451 252.798C466.95 252.798 466.533 252.914 466.199 253.145C465.869 253.372 465.703 253.661 465.703 254.013C465.703 254.325 465.817 254.572 466.044 254.753C466.272 254.934 466.627 255.085 467.11 255.206L468.324 255.504C469.056 255.682 469.601 255.953 469.96 256.319C470.318 256.681 470.498 257.148 470.498 257.72C470.498 258.189 470.363 258.608 470.093 258.977C469.826 259.347 469.453 259.638 468.974 259.851C468.495 260.064 467.937 260.17 467.301 260.17C466.467 260.17 465.776 259.989 465.229 259.627C464.683 259.265 464.336 258.736 464.191 258.04L465.384 257.741C465.498 258.182 465.712 258.512 466.028 258.732C466.348 258.952 466.765 259.062 467.28 259.062C467.866 259.062 468.331 258.938 468.676 258.69C469.024 258.437 469.198 258.136 469.198 257.784C469.198 257.5 469.098 257.262 468.9 257.07C468.701 256.875 468.395 256.729 467.983 256.634L466.62 256.314C465.87 256.136 465.32 255.861 464.968 255.488C464.62 255.112 464.446 254.641 464.446 254.077C464.446 253.615 464.576 253.207 464.835 252.852C465.098 252.496 465.455 252.218 465.906 252.015C466.36 251.813 466.875 251.712 467.451 251.712C468.26 251.712 468.896 251.889 469.358 252.244C469.823 252.599 470.153 253.068 470.348 253.651ZM472.39 260V251.818H473.604V253.097H473.711C473.881 252.66 474.157 252.321 474.536 252.079C474.916 251.834 475.373 251.712 475.905 251.712C476.445 251.712 476.894 251.834 477.253 252.079C477.615 252.321 477.898 252.66 478.1 253.097H478.185C478.395 252.674 478.709 252.338 479.128 252.09C479.547 251.838 480.05 251.712 480.636 251.712C481.367 251.712 481.965 251.941 482.431 252.399C482.896 252.853 483.128 253.562 483.128 254.524V260H481.871V254.524C481.871 253.92 481.706 253.489 481.376 253.23C481.046 252.971 480.657 252.841 480.209 252.841C479.634 252.841 479.188 253.015 478.872 253.363C478.556 253.707 478.398 254.144 478.398 254.673V260H477.12V254.396C477.12 253.931 476.969 253.556 476.667 253.272C476.365 252.985 475.976 252.841 475.501 252.841C475.174 252.841 474.869 252.928 474.584 253.102C474.304 253.276 474.077 253.517 473.903 253.826C473.732 254.132 473.647 254.485 473.647 254.886V260H472.39ZM487.835 260.192C487.316 260.192 486.846 260.094 486.423 259.899C486 259.7 485.665 259.414 485.416 259.041C485.168 258.665 485.043 258.21 485.043 257.678C485.043 257.209 485.136 256.829 485.32 256.538C485.505 256.243 485.752 256.012 486.061 255.845C486.37 255.678 486.711 255.554 487.084 255.472C487.46 255.387 487.838 255.32 488.218 255.27C488.715 255.206 489.118 255.158 489.427 255.126C489.74 255.091 489.967 255.032 490.109 254.95C490.255 254.869 490.328 254.727 490.328 254.524V254.482C490.328 253.956 490.184 253.548 489.896 253.256C489.612 252.965 489.18 252.82 488.602 252.82C488.002 252.82 487.531 252.951 487.19 253.214C486.849 253.477 486.609 253.757 486.471 254.055L485.278 253.629C485.491 253.132 485.775 252.745 486.13 252.468C486.489 252.187 486.879 251.992 487.302 251.882C487.728 251.768 488.147 251.712 488.559 251.712C488.822 251.712 489.124 251.744 489.465 251.808C489.809 251.868 490.141 251.994 490.461 252.186C490.784 252.377 491.052 252.667 491.265 253.054C491.478 253.441 491.585 253.96 491.585 254.609V260H490.328V258.892H490.264C490.178 259.07 490.036 259.26 489.837 259.462C489.639 259.664 489.374 259.837 489.044 259.979C488.714 260.121 488.31 260.192 487.835 260.192ZM488.026 259.062C488.524 259.062 488.943 258.965 489.283 258.77C489.628 258.574 489.887 258.322 490.061 258.013C490.239 257.704 490.328 257.379 490.328 257.038V255.888C490.274 255.952 490.157 256.01 489.976 256.064C489.798 256.113 489.592 256.158 489.358 256.197C489.127 256.232 488.902 256.264 488.682 256.293C488.465 256.317 488.289 256.339 488.154 256.357C487.828 256.399 487.522 256.468 487.238 256.564C486.957 256.657 486.73 256.797 486.556 256.985C486.386 257.17 486.301 257.422 486.301 257.741C486.301 258.178 486.462 258.509 486.785 258.732C487.112 258.952 487.526 259.062 488.026 259.062ZM493.879 260V251.818H495.094V253.054H495.179C495.328 252.649 495.598 252.321 495.988 252.069C496.379 251.816 496.819 251.69 497.309 251.69C497.402 251.69 497.517 251.692 497.656 251.696C497.794 251.699 497.899 251.705 497.97 251.712V252.99C497.927 252.979 497.83 252.963 497.677 252.942C497.528 252.917 497.37 252.905 497.203 252.905C496.805 252.905 496.45 252.988 496.138 253.155C495.829 253.319 495.584 253.546 495.403 253.837C495.225 254.125 495.136 254.453 495.136 254.822V260H493.879ZM503.531 251.818V252.884H499.291V251.818H503.531ZM500.527 249.858H501.784V257.656C501.784 258.011 501.835 258.278 501.938 258.455C502.045 258.629 502.18 258.746 502.343 258.807C502.51 258.864 502.686 258.892 502.871 258.892C503.009 258.892 503.123 258.885 503.211 258.871C503.3 258.853 503.371 258.839 503.425 258.828L503.68 259.957C503.595 259.989 503.476 260.021 503.323 260.053C503.171 260.089 502.977 260.107 502.743 260.107C502.388 260.107 502.04 260.03 501.699 259.877C501.361 259.725 501.081 259.492 500.857 259.18C500.637 258.867 500.527 258.473 500.527 257.997V249.858ZM508.658 260.17C507.891 260.17 507.23 259.989 506.676 259.627C506.123 259.265 505.696 258.766 505.398 258.13C505.1 257.495 504.951 256.768 504.951 255.952C504.951 255.121 505.103 254.387 505.409 253.752C505.718 253.113 506.147 252.614 506.698 252.255C507.252 251.893 507.898 251.712 508.637 251.712C509.212 251.712 509.73 251.818 510.192 252.031C510.654 252.244 511.032 252.543 511.327 252.926C511.621 253.31 511.804 253.757 511.875 254.268H510.618C510.522 253.896 510.309 253.565 509.979 253.278C509.652 252.987 509.212 252.841 508.658 252.841C508.168 252.841 507.738 252.969 507.369 253.224C507.003 253.477 506.717 253.833 506.511 254.295C506.309 254.753 506.208 255.291 506.208 255.909C506.208 256.541 506.307 257.092 506.506 257.56C506.708 258.029 506.993 258.393 507.358 258.652C507.728 258.912 508.161 259.041 508.658 259.041C508.985 259.041 509.281 258.984 509.548 258.871C509.814 258.757 510.039 258.594 510.224 258.381C510.409 258.168 510.54 257.912 510.618 257.614H511.875C511.804 258.097 511.629 258.532 511.348 258.919C511.071 259.302 510.703 259.608 510.245 259.835C509.791 260.059 509.262 260.17 508.658 260.17ZM517.037 260.17C516.298 260.17 515.65 259.995 515.093 259.643C514.539 259.292 514.105 258.8 513.793 258.168C513.484 257.536 513.33 256.797 513.33 255.952C513.33 255.099 513.484 254.355 513.793 253.72C514.105 253.084 514.539 252.591 515.093 252.239C515.65 251.887 516.298 251.712 517.037 251.712C517.776 251.712 518.422 251.887 518.976 252.239C519.533 252.591 519.967 253.084 520.276 253.72C520.588 254.355 520.744 255.099 520.744 255.952C520.744 256.797 520.588 257.536 520.276 258.168C519.967 258.8 519.533 259.292 518.976 259.643C518.422 259.995 517.776 260.17 517.037 260.17ZM517.037 259.041C517.598 259.041 518.06 258.897 518.422 258.61C518.784 258.322 519.052 257.944 519.226 257.475C519.4 257.006 519.487 256.499 519.487 255.952C519.487 255.405 519.4 254.895 519.226 254.423C519.052 253.951 518.784 253.569 518.422 253.278C518.06 252.987 517.598 252.841 517.037 252.841C516.476 252.841 516.014 252.987 515.652 253.278C515.29 253.569 515.022 253.951 514.848 254.423C514.674 254.895 514.587 255.405 514.587 255.952C514.587 256.499 514.674 257.006 514.848 257.475C515.022 257.944 515.29 258.322 515.652 258.61C516.014 258.897 516.476 259.041 517.037 259.041ZM523.92 255.078V260H522.663V251.818H523.878V253.097H523.984C524.176 252.681 524.467 252.347 524.858 252.095C525.248 251.839 525.753 251.712 526.371 251.712C526.925 251.712 527.409 251.825 527.825 252.053C528.24 252.276 528.563 252.617 528.794 253.075C529.025 253.53 529.141 254.105 529.141 254.801V260H527.883V254.886C527.883 254.244 527.717 253.743 527.383 253.384C527.049 253.022 526.591 252.841 526.008 252.841C525.607 252.841 525.248 252.928 524.932 253.102C524.62 253.276 524.373 253.53 524.192 253.864C524.011 254.197 523.92 254.602 523.92 255.078ZM534.996 251.818V252.884H530.756V251.818H534.996ZM531.992 249.858H533.249V257.656C533.249 258.011 533.3 258.278 533.403 258.455C533.51 258.629 533.645 258.746 533.808 258.807C533.975 258.864 534.151 258.892 534.335 258.892C534.474 258.892 534.588 258.885 534.676 258.871C534.765 258.853 534.836 258.839 534.889 258.828L535.145 259.957C535.06 259.989 534.941 260.021 534.788 260.053C534.635 260.089 534.442 260.107 534.208 260.107C533.852 260.107 533.504 260.03 533.164 259.877C532.826 259.725 532.546 259.492 532.322 259.18C532.102 258.867 531.992 258.473 531.992 257.997V249.858ZM536.887 260V251.818H538.101V253.054H538.187C538.336 252.649 538.606 252.321 538.996 252.069C539.387 251.816 539.827 251.69 540.317 251.69C540.41 251.69 540.525 251.692 540.664 251.696C540.802 251.699 540.907 251.705 540.978 251.712V252.99C540.935 252.979 540.838 252.963 540.685 252.942C540.536 252.917 540.378 252.905 540.211 252.905C539.813 252.905 539.458 252.988 539.145 253.155C538.836 253.319 538.591 253.546 538.41 253.837C538.233 254.125 538.144 254.453 538.144 254.822V260H536.887ZM544.876 260.192C544.357 260.192 543.887 260.094 543.464 259.899C543.041 259.7 542.706 259.414 542.457 259.041C542.209 258.665 542.084 258.21 542.084 257.678C542.084 257.209 542.177 256.829 542.361 256.538C542.546 256.243 542.793 256.012 543.102 255.845C543.411 255.678 543.752 255.554 544.125 255.472C544.501 255.387 544.879 255.32 545.259 255.27C545.756 255.206 546.159 255.158 546.468 255.126C546.781 255.091 547.008 255.032 547.15 254.95C547.296 254.869 547.369 254.727 547.369 254.524V254.482C547.369 253.956 547.225 253.548 546.937 253.256C546.653 252.965 546.222 252.82 545.643 252.82C545.043 252.82 544.572 252.951 544.231 253.214C543.89 253.477 543.65 253.757 543.512 254.055L542.319 253.629C542.532 253.132 542.816 252.745 543.171 252.468C543.53 252.187 543.92 251.992 544.343 251.882C544.769 251.768 545.188 251.712 545.6 251.712C545.863 251.712 546.165 251.744 546.506 251.808C546.85 251.868 547.182 251.994 547.502 252.186C547.825 252.377 548.093 252.667 548.306 253.054C548.519 253.441 548.626 253.96 548.626 254.609V260H547.369V258.892H547.305C547.219 259.07 547.077 259.26 546.878 259.462C546.68 259.664 546.415 259.837 546.085 259.979C545.755 260.121 545.351 260.192 544.876 260.192ZM545.067 259.062C545.565 259.062 545.984 258.965 546.324 258.77C546.669 258.574 546.928 258.322 547.102 258.013C547.28 257.704 547.369 257.379 547.369 257.038V255.888C547.315 255.952 547.198 256.01 547.017 256.064C546.839 256.113 546.633 256.158 546.399 256.197C546.168 256.232 545.943 256.264 545.723 256.293C545.506 256.317 545.33 256.339 545.195 256.357C544.869 256.399 544.563 256.468 544.279 256.564C543.998 256.657 543.771 256.797 543.597 256.985C543.427 257.17 543.342 257.422 543.342 257.741C543.342 258.178 543.503 258.509 543.826 258.732C544.153 258.952 544.567 259.062 545.067 259.062ZM554.244 260.17C553.477 260.17 552.816 259.989 552.262 259.627C551.708 259.265 551.282 258.766 550.984 258.13C550.686 257.495 550.537 256.768 550.537 255.952C550.537 255.121 550.689 254.387 550.995 253.752C551.304 253.113 551.733 252.614 552.284 252.255C552.838 251.893 553.484 251.712 554.223 251.712C554.798 251.712 555.316 251.818 555.778 252.031C556.24 252.244 556.618 252.543 556.913 252.926C557.207 253.31 557.39 253.757 557.461 254.268H556.204C556.108 253.896 555.895 253.565 555.565 253.278C555.238 252.987 554.798 252.841 554.244 252.841C553.754 252.841 553.324 252.969 552.955 253.224C552.589 253.477 552.303 253.833 552.097 254.295C551.895 254.753 551.794 255.291 551.794 255.909C551.794 256.541 551.893 257.092 552.092 257.56C552.294 258.029 552.578 258.393 552.944 258.652C553.314 258.912 553.747 259.041 554.244 259.041C554.571 259.041 554.867 258.984 555.134 258.871C555.4 258.757 555.625 258.594 555.81 258.381C555.995 258.168 556.126 257.912 556.204 257.614H557.461C557.39 258.097 557.214 258.532 556.934 258.919C556.657 259.302 556.289 259.608 555.831 259.835C555.377 260.059 554.848 260.17 554.244 260.17ZM562.857 251.818V252.884H558.617V251.818H562.857ZM559.853 249.858H561.11V257.656C561.11 258.011 561.162 258.278 561.265 258.455C561.371 258.629 561.506 258.746 561.669 258.807C561.836 258.864 562.012 258.892 562.197 258.892C562.335 258.892 562.449 258.885 562.538 258.871C562.626 258.853 562.697 258.839 562.751 258.828L563.006 259.957C562.921 259.989 562.802 260.021 562.65 260.053C562.497 260.089 562.303 260.107 562.069 260.107C561.714 260.107 561.366 260.03 561.025 259.877C560.688 259.725 560.407 259.492 560.183 259.18C559.963 258.867 559.853 258.473 559.853 257.997V249.858Z" fill="white"/>
<path d="M397.332 217.651L396.203 217.97C396.131 217.782 396.027 217.599 395.888 217.422C395.753 217.24 395.569 217.091 395.334 216.974C395.1 216.857 394.8 216.798 394.434 216.798C393.933 216.798 393.516 216.914 393.182 217.145C392.852 217.372 392.687 217.661 392.687 218.013C392.687 218.325 392.801 218.572 393.028 218.753C393.255 218.934 393.61 219.085 394.093 219.206L395.308 219.504C396.039 219.682 396.584 219.953 396.943 220.319C397.302 220.681 397.481 221.148 397.481 221.72C397.481 222.189 397.346 222.608 397.076 222.977C396.81 223.347 396.437 223.638 395.957 223.851C395.478 224.064 394.921 224.17 394.285 224.17C393.45 224.17 392.76 223.989 392.213 223.627C391.666 223.265 391.32 222.736 391.174 222.04L392.367 221.741C392.481 222.182 392.696 222.512 393.012 222.732C393.331 222.952 393.749 223.062 394.264 223.062C394.85 223.062 395.315 222.938 395.659 222.69C396.007 222.437 396.181 222.136 396.181 221.784C396.181 221.5 396.082 221.262 395.883 221.07C395.684 220.875 395.379 220.729 394.967 220.634L393.603 220.314C392.854 220.136 392.303 219.861 391.952 219.488C391.604 219.112 391.43 218.641 391.43 218.077C391.43 217.615 391.559 217.207 391.819 216.852C392.081 216.496 392.438 216.218 392.889 216.015C393.344 215.813 393.859 215.712 394.434 215.712C395.244 215.712 395.879 215.889 396.341 216.244C396.806 216.599 397.136 217.068 397.332 217.651ZM402.697 224.17C401.93 224.17 401.27 223.989 400.716 223.627C400.162 223.265 399.735 222.766 399.437 222.13C399.139 221.495 398.99 220.768 398.99 219.952C398.99 219.121 399.142 218.387 399.448 217.752C399.757 217.113 400.186 216.614 400.737 216.255C401.291 215.893 401.937 215.712 402.676 215.712C403.251 215.712 403.77 215.818 404.231 216.031C404.693 216.244 405.071 216.543 405.366 216.926C405.661 217.31 405.843 217.757 405.914 218.268H404.657C404.561 217.896 404.348 217.565 404.018 217.278C403.691 216.987 403.251 216.841 402.697 216.841C402.207 216.841 401.777 216.969 401.408 217.224C401.042 217.477 400.756 217.833 400.55 218.295C400.348 218.753 400.247 219.291 400.247 219.909C400.247 220.541 400.346 221.092 400.545 221.56C400.748 222.029 401.032 222.393 401.397 222.652C401.767 222.912 402.2 223.041 402.697 223.041C403.024 223.041 403.32 222.984 403.587 222.871C403.853 222.757 404.078 222.594 404.263 222.381C404.448 222.168 404.579 221.912 404.657 221.614H405.914C405.843 222.097 405.668 222.532 405.387 222.919C405.11 223.302 404.743 223.608 404.284 223.835C403.83 224.059 403.301 224.17 402.697 224.17ZM411.076 224.17C410.337 224.17 409.689 223.995 409.132 223.643C408.578 223.292 408.145 222.8 407.832 222.168C407.523 221.536 407.369 220.797 407.369 219.952C407.369 219.099 407.523 218.355 407.832 217.72C408.145 217.084 408.578 216.591 409.132 216.239C409.689 215.887 410.337 215.712 411.076 215.712C411.815 215.712 412.461 215.887 413.015 216.239C413.572 216.591 414.006 217.084 414.315 217.72C414.627 218.355 414.783 219.099 414.783 219.952C414.783 220.797 414.627 221.536 414.315 222.168C414.006 222.8 413.572 223.292 413.015 223.643C412.461 223.995 411.815 224.17 411.076 224.17ZM411.076 223.041C411.637 223.041 412.099 222.897 412.461 222.61C412.823 222.322 413.091 221.944 413.265 221.475C413.439 221.006 413.526 220.499 413.526 219.952C413.526 219.405 413.439 218.895 413.265 218.423C413.091 217.951 412.823 217.569 412.461 217.278C412.099 216.987 411.637 216.841 411.076 216.841C410.515 216.841 410.053 216.987 409.691 217.278C409.329 217.569 409.061 217.951 408.887 218.423C408.713 218.895 408.626 219.405 408.626 219.952C408.626 220.499 408.713 221.006 408.887 221.475C409.061 221.944 409.329 222.322 409.691 222.61C410.053 222.897 410.515 223.041 411.076 223.041ZM416.702 224V215.818H417.917V217.054H418.002C418.151 216.649 418.421 216.321 418.812 216.069C419.202 215.816 419.643 215.69 420.133 215.69C420.225 215.69 420.34 215.692 420.479 215.696C420.617 215.699 420.722 215.705 420.793 215.712V216.99C420.751 216.979 420.653 216.963 420.5 216.942C420.351 216.917 420.193 216.905 420.026 216.905C419.628 216.905 419.273 216.988 418.961 217.155C418.652 217.319 418.407 217.546 418.226 217.837C418.048 218.125 417.959 218.453 417.959 218.822V224H416.702ZM425.465 224.17C424.676 224.17 423.996 223.996 423.425 223.648C422.856 223.297 422.418 222.807 422.109 222.178C421.804 221.546 421.651 220.811 421.651 219.973C421.651 219.135 421.804 218.396 422.109 217.757C422.418 217.114 422.848 216.614 423.398 216.255C423.952 215.893 424.598 215.712 425.337 215.712C425.763 215.712 426.184 215.783 426.599 215.925C427.015 216.067 427.393 216.298 427.734 216.617C428.075 216.933 428.347 217.352 428.549 217.874C428.751 218.396 428.853 219.039 428.853 219.803V220.335H422.546V219.249H427.574C427.574 218.787 427.482 218.375 427.297 218.013C427.116 217.651 426.857 217.365 426.519 217.155C426.186 216.946 425.791 216.841 425.337 216.841C424.836 216.841 424.403 216.965 424.037 217.214C423.675 217.459 423.396 217.778 423.201 218.173C423.006 218.567 422.908 218.989 422.908 219.44V220.165C422.908 220.783 423.014 221.306 423.228 221.736C423.444 222.162 423.744 222.487 424.128 222.711C424.511 222.931 424.957 223.041 425.465 223.041C425.795 223.041 426.093 222.995 426.36 222.903C426.63 222.807 426.862 222.665 427.057 222.477C427.253 222.285 427.404 222.047 427.51 221.763L428.725 222.104C428.597 222.516 428.382 222.878 428.08 223.19C427.778 223.499 427.405 223.741 426.962 223.915C426.518 224.085 426.019 224.17 425.465 224.17Z" fill="white"/>
<path d="M277.648 268.17C276.91 268.17 276.262 267.995 275.704 267.643C275.15 267.292 274.717 266.8 274.404 266.168C274.095 265.536 273.941 264.797 273.941 263.952C273.941 263.099 274.095 262.355 274.404 261.72C274.717 261.084 275.15 260.591 275.704 260.239C276.262 259.887 276.91 259.712 277.648 259.712C278.387 259.712 279.033 259.887 279.587 260.239C280.145 260.591 280.578 261.084 280.887 261.72C281.199 262.355 281.356 263.099 281.356 263.952C281.356 264.797 281.199 265.536 280.887 266.168C280.578 266.8 280.145 267.292 279.587 267.643C279.033 267.995 278.387 268.17 277.648 268.17ZM277.648 267.041C278.209 267.041 278.671 266.897 279.033 266.61C279.395 266.322 279.664 265.944 279.838 265.475C280.012 265.006 280.099 264.499 280.099 263.952C280.099 263.405 280.012 262.895 279.838 262.423C279.664 261.951 279.395 261.569 279.033 261.278C278.671 260.987 278.209 260.841 277.648 260.841C277.087 260.841 276.626 260.987 276.263 261.278C275.901 261.569 275.633 261.951 275.459 262.423C275.285 262.895 275.198 263.405 275.198 263.952C275.198 264.499 275.285 265.006 275.459 265.475C275.633 265.944 275.901 266.322 276.263 266.61C276.626 266.897 277.087 267.041 277.648 267.041ZM283.275 268V259.818H284.489V261.054H284.574C284.723 260.649 284.993 260.321 285.384 260.069C285.775 259.816 286.215 259.69 286.705 259.69C286.797 259.69 286.913 259.692 287.051 259.696C287.19 259.699 287.294 259.705 287.366 259.712V260.99C287.323 260.979 287.225 260.963 287.073 260.942C286.923 260.917 286.765 260.905 286.598 260.905C286.201 260.905 285.846 260.988 285.533 261.155C285.224 261.319 284.979 261.546 284.798 261.837C284.62 262.125 284.532 262.453 284.532 262.822V268H283.275ZM291.263 268.192C290.745 268.192 290.274 268.094 289.852 267.899C289.429 267.7 289.094 267.414 288.845 267.041C288.596 266.665 288.472 266.21 288.472 265.678C288.472 265.209 288.564 264.829 288.749 264.538C288.934 264.243 289.181 264.012 289.49 263.845C289.798 263.678 290.139 263.554 290.512 263.472C290.889 263.387 291.267 263.32 291.647 263.27C292.144 263.206 292.547 263.158 292.856 263.126C293.169 263.091 293.396 263.032 293.538 262.95C293.683 262.869 293.756 262.727 293.756 262.524V262.482C293.756 261.956 293.612 261.548 293.325 261.256C293.041 260.965 292.609 260.82 292.03 260.82C291.43 260.82 290.96 260.951 290.619 261.214C290.278 261.477 290.038 261.757 289.9 262.055L288.706 261.629C288.92 261.132 289.204 260.745 289.559 260.468C289.917 260.187 290.308 259.992 290.731 259.882C291.157 259.768 291.576 259.712 291.988 259.712C292.251 259.712 292.552 259.744 292.893 259.808C293.238 259.868 293.57 259.994 293.889 260.186C294.213 260.377 294.481 260.667 294.694 261.054C294.907 261.441 295.013 261.96 295.013 262.609V268H293.756V266.892H293.692C293.607 267.07 293.465 267.26 293.266 267.462C293.067 267.664 292.803 267.837 292.472 267.979C292.142 268.121 291.739 268.192 291.263 268.192ZM291.455 267.062C291.952 267.062 292.371 266.965 292.712 266.77C293.057 266.574 293.316 266.322 293.49 266.013C293.667 265.704 293.756 265.379 293.756 265.038V263.888C293.703 263.952 293.586 264.01 293.405 264.064C293.227 264.113 293.021 264.158 292.787 264.197C292.556 264.232 292.33 264.264 292.11 264.293C291.894 264.317 291.718 264.339 291.583 264.357C291.256 264.399 290.951 264.468 290.667 264.564C290.386 264.657 290.159 264.797 289.985 264.985C289.814 265.17 289.729 265.422 289.729 265.741C289.729 266.178 289.891 266.509 290.214 266.732C290.541 266.952 290.954 267.062 291.455 267.062ZM300.632 268.17C299.865 268.17 299.204 267.989 298.65 267.627C298.096 267.265 297.67 266.766 297.372 266.13C297.073 265.495 296.924 264.768 296.924 263.952C296.924 263.121 297.077 262.387 297.382 261.752C297.691 261.113 298.121 260.614 298.671 260.255C299.225 259.893 299.872 259.712 300.61 259.712C301.186 259.712 301.704 259.818 302.166 260.031C302.627 260.244 303.006 260.543 303.3 260.926C303.595 261.31 303.778 261.757 303.849 262.268H302.592C302.496 261.896 302.283 261.565 301.953 261.278C301.626 260.987 301.186 260.841 300.632 260.841C300.142 260.841 299.712 260.969 299.343 261.224C298.977 261.477 298.691 261.833 298.485 262.295C298.283 262.753 298.181 263.291 298.181 263.909C298.181 264.541 298.281 265.092 298.48 265.56C298.682 266.029 298.966 266.393 299.332 266.652C299.701 266.912 300.134 267.041 300.632 267.041C300.958 267.041 301.255 266.984 301.521 266.871C301.788 266.757 302.013 266.594 302.198 266.381C302.382 266.168 302.514 265.912 302.592 265.614H303.849C303.778 266.097 303.602 266.532 303.322 266.919C303.045 267.302 302.677 267.608 302.219 267.835C301.764 268.059 301.235 268.17 300.632 268.17ZM306.944 257.091V268H305.687V257.091H306.944ZM312.677 268.17C311.888 268.17 311.208 267.996 310.637 267.648C310.068 267.297 309.63 266.807 309.321 266.178C309.015 265.546 308.863 264.811 308.863 263.973C308.863 263.135 309.015 262.396 309.321 261.757C309.63 261.114 310.059 260.614 310.61 260.255C311.164 259.893 311.81 259.712 312.549 259.712C312.975 259.712 313.396 259.783 313.811 259.925C314.227 260.067 314.605 260.298 314.946 260.617C315.287 260.933 315.558 261.352 315.761 261.874C315.963 262.396 316.064 263.039 316.064 263.803V264.335H309.758V263.249H314.786C314.786 262.787 314.694 262.375 314.509 262.013C314.328 261.651 314.069 261.365 313.731 261.155C313.398 260.946 313.003 260.841 312.549 260.841C312.048 260.841 311.615 260.965 311.249 261.214C310.887 261.459 310.608 261.778 310.413 262.173C310.218 262.567 310.12 262.989 310.12 263.44V264.165C310.12 264.783 310.226 265.306 310.439 265.736C310.656 266.162 310.956 266.487 311.34 266.711C311.723 266.931 312.169 267.041 312.677 267.041C313.007 267.041 313.305 266.995 313.572 266.903C313.841 266.807 314.074 266.665 314.269 266.477C314.465 266.285 314.616 266.047 314.722 265.763L315.937 266.104C315.809 266.516 315.594 266.878 315.292 267.19C314.99 267.499 314.617 267.741 314.173 267.915C313.73 268.085 313.231 268.17 312.677 268.17Z" fill="white"/>
<path d="M18.581 127H17.196L21.2017 116.091H22.5653L26.571 127H25.1861L21.9261 117.817H21.8409L18.581 127ZM19.0923 122.739H24.6747V123.911H19.0923V122.739ZM29.5913 116.091V127H28.2702V116.091H29.5913ZM39.3778 127.17C38.6959 127.17 38.094 126.998 37.572 126.654C37.05 126.306 36.6416 125.816 36.3469 125.184C36.0521 124.548 35.9047 123.797 35.9047 122.93C35.9047 122.071 36.0521 121.325 36.3469 120.693C36.6416 120.061 37.0518 119.573 37.5773 119.228C38.1029 118.884 38.7101 118.712 39.3991 118.712C39.9317 118.712 40.3525 118.8 40.6615 118.978C40.974 119.152 41.2119 119.351 41.3753 119.575C41.5422 119.795 41.6718 119.976 41.7641 120.118H41.8707V116.091H43.1278V127H41.9133V125.743H41.7641C41.6718 125.892 41.5404 126.08 41.3699 126.308C41.1995 126.531 40.9562 126.732 40.6402 126.909C40.3241 127.083 39.9033 127.17 39.3778 127.17ZM39.5482 126.041C40.0525 126.041 40.4786 125.91 40.8266 125.647C41.1746 125.381 41.4392 125.013 41.6203 124.544C41.8014 124.072 41.892 123.527 41.892 122.909C41.892 122.298 41.8032 121.764 41.6256 121.306C41.4481 120.844 41.1853 120.485 40.8373 120.23C40.4893 119.971 40.0596 119.841 39.5482 119.841C39.0155 119.841 38.5716 119.978 38.2165 120.251C37.865 120.521 37.6004 120.888 37.4229 121.354C37.2488 121.815 37.1618 122.334 37.1618 122.909C37.1618 123.491 37.2506 124.021 37.4282 124.496C37.6093 124.969 37.8756 125.345 38.2272 125.626C38.5823 125.903 39.0226 126.041 39.5482 126.041ZM48.0123 127.192C47.4939 127.192 47.0233 127.094 46.6008 126.899C46.1782 126.7 45.8426 126.414 45.594 126.041C45.3454 125.665 45.2211 125.21 45.2211 124.678C45.2211 124.209 45.3135 123.829 45.4981 123.538C45.6828 123.243 45.9296 123.012 46.2385 122.845C46.5475 122.678 46.8884 122.554 47.2613 122.472C47.6377 122.387 48.0159 122.32 48.3959 122.27C48.893 122.206 49.2961 122.158 49.605 122.126C49.9175 122.091 50.1448 122.032 50.2868 121.95C50.4324 121.869 50.5052 121.727 50.5052 121.524V121.482C50.5052 120.956 50.3614 120.548 50.0738 120.256C49.7897 119.965 49.3582 119.82 48.7794 119.82C48.1792 119.82 47.7087 119.951 47.3678 120.214C47.0269 120.477 46.7872 120.757 46.6487 121.055L45.4555 120.629C45.6686 120.132 45.9527 119.745 46.3078 119.468C46.6665 119.187 47.0571 118.992 47.4797 118.882C47.9058 118.768 48.3248 118.712 48.7368 118.712C48.9996 118.712 49.3014 118.744 49.6423 118.808C49.9868 118.868 50.3188 118.994 50.6384 119.186C50.9616 119.377 51.2297 119.667 51.4427 120.054C51.6558 120.441 51.7623 120.96 51.7623 121.609V127H50.5052V125.892H50.4413C50.3561 126.07 50.214 126.26 50.0152 126.462C49.8163 126.664 49.5518 126.837 49.2215 126.979C48.8912 127.121 48.4882 127.192 48.0123 127.192ZM48.2041 126.062C48.7013 126.062 49.1203 125.965 49.4612 125.77C49.8057 125.574 50.0649 125.322 50.2389 125.013C50.4165 124.704 50.5052 124.379 50.5052 124.038V122.888C50.452 122.952 50.3348 123.01 50.1537 123.064C49.9761 123.113 49.7702 123.158 49.5358 123.197C49.305 123.232 49.0795 123.264 48.8593 123.293C48.6427 123.317 48.4669 123.339 48.3319 123.357C48.0052 123.399 47.6998 123.468 47.4157 123.564C47.1352 123.657 46.9079 123.797 46.7339 123.985C46.5635 124.17 46.4782 124.422 46.4782 124.741C46.4782 125.178 46.6398 125.509 46.963 125.732C47.2897 125.952 47.7034 126.062 48.2041 126.062ZM54.0568 130.068V118.818H55.2713V120.118H55.4205C55.5128 119.976 55.6406 119.795 55.804 119.575C55.9709 119.351 56.2088 119.152 56.5178 118.978C56.8303 118.8 57.2528 118.712 57.7855 118.712C58.4744 118.712 59.0817 118.884 59.6072 119.228C60.1328 119.573 60.543 120.061 60.8377 120.693C61.1325 121.325 61.2798 122.071 61.2798 122.93C61.2798 123.797 61.1325 124.548 60.8377 125.184C60.543 125.816 60.1346 126.306 59.6126 126.654C59.0906 126.998 58.4886 127.17 57.8068 127.17C57.2813 127.17 56.8604 127.083 56.5444 126.909C56.2283 126.732 55.9851 126.531 55.8146 126.308C55.6442 126.08 55.5128 125.892 55.4205 125.743H55.3139V130.068H54.0568ZM55.2926 122.909C55.2926 123.527 55.3832 124.072 55.5643 124.544C55.7454 125.013 56.0099 125.381 56.358 125.647C56.706 125.91 57.1321 126.041 57.6364 126.041C58.1619 126.041 58.6005 125.903 58.9521 125.626C59.3072 125.345 59.5735 124.969 59.7511 124.496C59.9322 124.021 60.0227 123.491 60.0227 122.909C60.0227 122.334 59.9339 121.815 59.7564 121.354C59.5824 120.888 59.3178 120.521 58.9627 120.251C58.6112 119.978 58.169 119.841 57.6364 119.841C57.125 119.841 56.6953 119.971 56.3473 120.23C55.9993 120.485 55.7365 120.844 55.5589 121.306C55.3814 121.764 55.2926 122.298 55.2926 122.909ZM63.1974 130.068V118.818H64.4119V120.118H64.5611C64.6534 119.976 64.7813 119.795 64.9446 119.575C65.1115 119.351 65.3494 119.152 65.6584 118.978C65.9709 118.8 66.3935 118.712 66.9261 118.712C67.6151 118.712 68.2223 118.884 68.7479 119.228C69.2734 119.573 69.6836 120.061 69.9783 120.693C70.2731 121.325 70.4205 122.071 70.4205 122.93C70.4205 123.797 70.2731 124.548 69.9783 125.184C69.6836 125.816 69.2752 126.306 68.7532 126.654C68.2312 126.998 67.6293 127.17 66.9474 127.17C66.4219 127.17 66.0011 127.083 65.685 126.909C65.369 126.732 65.1257 126.531 64.9553 126.308C64.7848 126.08 64.6534 125.892 64.5611 125.743H64.4545V130.068H63.1974ZM64.4332 122.909C64.4332 123.527 64.5238 124.072 64.7049 124.544C64.886 125.013 65.1506 125.381 65.4986 125.647C65.8466 125.91 66.2727 126.041 66.777 126.041C67.3026 126.041 67.7411 125.903 68.0927 125.626C68.4478 125.345 68.7141 124.969 68.8917 124.496C69.0728 124.021 69.1634 123.491 69.1634 122.909C69.1634 122.334 69.0746 121.815 68.897 121.354C68.723 120.888 68.4585 120.521 68.1033 120.251C67.7518 119.978 67.3097 119.841 66.777 119.841C66.2656 119.841 65.8359 119.971 65.4879 120.23C65.1399 120.485 64.8771 120.844 64.6996 121.306C64.522 121.764 64.4332 122.298 64.4332 122.909Z" fill="white"/>
<rect x="232" y="17" width="126" height="65" rx="4" fill="url(#paint3_linear_26_10)"/>
<rect width="50.7551" height="50.6" transform="matrix(0.866906 -0.498472 2.21205e-08 1 295 191.6)" fill="url(#paint4_linear_26_10)"/>
<rect width="50.7551" height="50.6" transform="matrix(0.866906 0.498472 -2.21205e-08 1 251 166.3)" fill="url(#paint5_linear_26_10)"/>
<rect width="50.7551" height="50.7551" transform="matrix(0.866906 -0.498472 0.866906 0.498472 251 166.3)" fill="url(#paint6_linear_26_10)"/>
<rect width="50.7551" height="50.6" transform="matrix(0.866906 -0.498472 2.21205e-08 1 44.0001 50.6)" fill="url(#paint7_linear_26_10)"/>
<rect width="50.7551" height="50.6" transform="matrix(0.866906 0.498472 -2.21205e-08 1 0 25.3)" fill="url(#paint8_linear_26_10)"/>
<rect width="50.7551" height="50.7551" transform="matrix(0.866906 -0.498472 0.866906 0.498472 0 25.3)" fill="url(#paint9_linear_26_10)"/>
<g clip-path="url(#clip0_26_10)">
<path d="M513.49 128L512.78 130.415V200.489L513.49 201.198L545.98 181.971L513.49 128Z" fill="#0D60DA"/>
<path d="M513.49 128L481 181.971L513.49 201.198V167.186V128Z" fill="#287EFF"/>
<path d="M513.49 207.357L513.09 207.845V232.807L513.49 233.976L546 188.14L513.49 207.357Z" fill="#0E5DD1"/>
<path d="M513.49 233.976V207.356L481 188.139L513.49 233.976Z" fill="#287EFF"/>
<path d="M513.49 201.198L545.98 181.971L513.49 167.187V201.198Z" fill="#0E50AF"/>
<path d="M481 181.971L513.49 201.198V167.187L481 181.971Z" fill="#1068E8"/>
</g>
<defs>
<linearGradient id="paint0_linear_26_10" x1="412.503" y1="178.456" x2="395.801" y2="188.167" gradientUnits="userSpaceOnUse">
<stop stop-color="#0D6EFD"/>
<stop offset="1" stop-color="#0E4FAE"/>
</linearGradient>
<linearGradient id="paint1_linear_26_10" x1="162.66" y1="29.1374" x2="144.688" y2="41.546" gradientUnits="userSpaceOnUse">
<stop stop-color="#0D6EFD"/>
<stop offset="1" stop-color="#0E4FAE"/>
</linearGradient>
<linearGradient id="paint2_linear_26_10" x1="162.66" y1="131.456" x2="144.688" y2="143.864" gradientUnits="userSpaceOnUse">
<stop stop-color="#0D6EFD"/>
<stop offset="1" stop-color="#0E4FAE"/>
</linearGradient>
<linearGradient id="paint3_linear_26_10" x1="301.222" y1="31.1667" x2="258.53" y2="55.2247" gradientUnits="userSpaceOnUse">
<stop stop-color="#0D6EFD"/>
<stop offset="1" stop-color="#0E4FAE"/>
</linearGradient>
<linearGradient id="paint4_linear_26_10" x1="60.2894" y1="26.5421" x2="6.7485" y2="64.8275" gradientUnits="userSpaceOnUse">
<stop stop-color="#0D6EFD"/>
<stop offset="1" stop-color="#103B7B"/>
</linearGradient>
<linearGradient id="paint5_linear_26_10" x1="60.9905" y1="-14.302" x2="-24.7314" y2="-9.15675" gradientUnits="userSpaceOnUse">
<stop stop-color="#0067FF"/>
<stop offset="1" stop-color="#3F8CFF"/>
</linearGradient>
<linearGradient id="paint6_linear_26_10" x1="40.3799" y1="40.3799" x2="36.8699" y2="-19.7004" gradientUnits="userSpaceOnUse">
<stop stop-color="#0D6EFD"/>
<stop offset="1" stop-color="#103B7B"/>
</linearGradient>
<linearGradient id="paint7_linear_26_10" x1="60.2894" y1="26.5421" x2="6.7485" y2="64.8275" gradientUnits="userSpaceOnUse">
<stop stop-color="#0D6EFD"/>
<stop offset="1" stop-color="#103B7B"/>
</linearGradient>
<linearGradient id="paint8_linear_26_10" x1="60.9905" y1="-14.302" x2="-24.7314" y2="-9.15675" gradientUnits="userSpaceOnUse">
<stop stop-color="#0067FF"/>
<stop offset="1" stop-color="#3F8CFF"/>
</linearGradient>
<linearGradient id="paint9_linear_26_10" x1="40.3799" y1="40.3799" x2="36.8699" y2="-19.7004" gradientUnits="userSpaceOnUse">
<stop stop-color="#0D6EFD"/>
<stop offset="1" stop-color="#103B7B"/>
</linearGradient>
<clipPath id="clip0_26_10">
<rect width="65" height="106" fill="white" transform="translate(481 128)"/>
</clipPath>
</defs>
</svg>
