<svg width="288" height="173" viewBox="0 0 288 173" fill="none" xmlns="http://www.w3.org/2000/svg">
<rect width="50.1721" height="50" transform="matrix(0.867013 -0.498285 2.21316e-08 1 43.5001 60)" fill="url(#paint0_linear_77_93)"/>
<rect width="50.1721" height="50" transform="matrix(0.867013 0.498285 -2.21316e-08 1 0 35)" fill="url(#paint1_linear_77_93)"/>
<rect width="50.1721" height="50.1721" transform="matrix(0.867014 -0.498285 0.867013 0.498285 0 35)" fill="url(#paint2_linear_77_93)"/>
<path d="M7.33101 139.091V150H6.00999V139.091H7.33101ZM13.2397 150.17C12.4513 150.17 11.7713 149.996 11.1995 149.648C10.6313 149.297 10.1928 148.807 9.88383 148.178C9.57844 147.546 9.42574 146.811 9.42574 145.973C9.42574 145.135 9.57844 144.396 9.88383 143.757C10.1928 143.114 10.6225 142.614 11.1729 142.255C11.7269 141.893 12.3732 141.712 13.1118 141.712C13.538 141.712 13.9588 141.783 14.3742 141.925C14.7897 142.067 15.1679 142.298 15.5088 142.617C15.8497 142.933 16.1214 143.352 16.3238 143.874C16.5262 144.396 16.6274 145.039 16.6274 145.803V146.335H10.3206V145.249H15.349C15.349 144.787 15.2567 144.375 15.072 144.013C14.8909 143.651 14.6317 143.365 14.2943 143.155C13.9605 142.946 13.5664 142.841 13.1118 142.841C12.6111 142.841 12.1779 142.965 11.8121 143.214C11.4499 143.459 11.1711 143.778 10.9758 144.173C10.7805 144.567 10.6828 144.989 10.6828 145.44V146.165C10.6828 146.783 10.7894 147.306 11.0024 147.736C11.2191 148.162 11.5191 148.487 11.9027 148.711C12.2862 148.931 12.7318 149.041 13.2397 149.041C13.5699 149.041 13.8682 148.995 14.1345 148.903C14.4044 148.807 14.637 148.665 14.8323 148.477C15.0277 148.285 15.1786 148.047 15.2851 147.763L16.4996 148.104C16.3718 148.516 16.1569 148.878 15.8551 149.19C15.5532 149.499 15.1804 149.741 14.7365 149.915C14.2926 150.085 13.7936 150.17 13.2397 150.17ZM19.2575 141.818L21.2177 145.163L23.178 141.818H24.6268L21.9848 145.909L24.6268 150H23.178L21.2177 146.825L19.2575 150H17.8086L20.4081 145.909L17.8086 141.818H19.2575ZM29.5141 150.17C28.7257 150.17 28.0457 149.996 27.4739 149.648C26.9058 149.297 26.4672 148.807 26.1582 148.178C25.8528 147.546 25.7002 146.811 25.7002 145.973C25.7002 145.135 25.8528 144.396 26.1582 143.757C26.4672 143.114 26.8969 142.614 27.4473 142.255C28.0013 141.893 28.6476 141.712 29.3862 141.712C29.8124 141.712 30.2332 141.783 30.6487 141.925C31.0641 142.067 31.4423 142.298 31.7832 142.617C32.1242 142.933 32.3958 143.352 32.5982 143.874C32.8006 144.396 32.9019 145.039 32.9019 145.803V146.335H26.595V145.249H31.6234C31.6234 144.787 31.5311 144.375 31.3465 144.013C31.1653 143.651 30.9061 143.365 30.5688 143.155C30.235 142.946 29.8408 142.841 29.3862 142.841C28.8855 142.841 28.4523 142.965 28.0865 143.214C27.7243 143.459 27.4455 143.778 27.2502 144.173C27.0549 144.567 26.9573 144.989 26.9573 145.44V146.165C26.9573 146.783 27.0638 147.306 27.2769 147.736C27.4935 148.162 27.7935 148.487 28.1771 148.711C28.5606 148.931 29.0063 149.041 29.5141 149.041C29.8443 149.041 30.1426 148.995 30.409 148.903C30.6788 148.807 30.9114 148.665 31.1068 148.477C31.3021 148.285 31.453 148.047 31.5595 147.763L32.774 148.104C32.6462 148.516 32.4313 148.878 32.1295 149.19C31.8276 149.499 31.4548 149.741 31.0109 149.915C30.567 150.085 30.068 150.17 29.5141 150.17ZM38.138 150.17C37.371 150.17 36.7104 149.989 36.1565 149.627C35.6025 149.265 35.1764 148.766 34.8781 148.13C34.5798 147.495 34.4306 146.768 34.4306 145.952C34.4306 145.121 34.5833 144.387 34.8887 143.752C35.1977 143.113 35.6274 142.614 36.1778 142.255C36.7318 141.893 37.3781 141.712 38.1167 141.712C38.692 141.712 39.2104 141.818 39.6721 142.031C40.1337 142.244 40.5119 142.543 40.8067 142.926C41.1014 143.31 41.2843 143.757 41.3553 144.268H40.0982C40.0024 143.896 39.7893 143.565 39.459 143.278C39.1323 142.987 38.692 142.841 38.138 142.841C37.6479 142.841 37.2183 142.969 36.8489 143.224C36.4832 143.477 36.1973 143.833 35.9913 144.295C35.7889 144.753 35.6877 145.291 35.6877 145.909C35.6877 146.541 35.7872 147.092 35.986 147.56C36.1884 148.029 36.4725 148.393 36.8383 148.652C37.2076 148.912 37.6408 149.041 38.138 149.041C38.4647 149.041 38.7612 148.984 39.0276 148.871C39.2939 148.757 39.5194 148.594 39.7041 148.381C39.8887 148.168 40.0201 147.912 40.0982 147.614H41.3553C41.2843 148.097 41.1085 148.532 40.828 148.919C40.551 149.302 40.1835 149.608 39.7254 149.835C39.2708 150.059 38.7417 150.17 38.138 150.17ZM50.5013 150.17C49.8195 150.17 49.2176 149.998 48.6955 149.654C48.1735 149.306 47.7651 148.816 47.4704 148.184C47.1756 147.548 47.0283 146.797 47.0283 145.93C47.0283 145.071 47.1756 144.325 47.4704 143.693C47.7651 143.061 48.1753 142.573 48.7009 142.228C49.2264 141.884 49.8337 141.712 50.5226 141.712C51.0553 141.712 51.4761 141.8 51.785 141.978C52.0975 142.152 52.3354 142.351 52.4988 142.575C52.6657 142.795 52.7953 142.976 52.8877 143.118H52.9942V139.091H54.2513V150H53.0368V148.743H52.8877C52.7953 148.892 52.6639 149.08 52.4935 149.308C52.323 149.531 52.0798 149.732 51.7637 149.909C51.4477 150.083 51.0269 150.17 50.5013 150.17ZM50.6717 149.041C51.176 149.041 51.6021 148.91 51.9502 148.647C52.2982 148.381 52.5627 148.013 52.7438 147.544C52.9249 147.072 53.0155 146.527 53.0155 145.909C53.0155 145.298 52.9267 144.764 52.7492 144.306C52.5716 143.844 52.3088 143.485 51.9608 143.23C51.6128 142.971 51.1831 142.841 50.6717 142.841C50.1391 142.841 49.6952 142.978 49.3401 143.251C48.9885 143.521 48.7239 143.888 48.5464 144.354C48.3724 144.815 48.2854 145.334 48.2854 145.909C48.2854 146.491 48.3742 147.021 48.5517 147.496C48.7328 147.969 48.9992 148.345 49.3507 148.626C49.7058 148.903 50.1462 149.041 50.6717 149.041ZM59.1359 150.192C58.6174 150.192 58.1469 150.094 57.7243 149.899C57.3017 149.7 56.9661 149.414 56.7176 149.041C56.469 148.665 56.3447 148.21 56.3447 147.678C56.3447 147.209 56.437 146.829 56.6217 146.538C56.8063 146.243 57.0531 146.012 57.3621 145.845C57.671 145.678 58.0119 145.554 58.3848 145.472C58.7612 145.387 59.1394 145.32 59.5194 145.27C60.0166 145.206 60.4196 145.158 60.7286 145.126C61.0411 145.091 61.2683 145.032 61.4104 144.95C61.556 144.869 61.6288 144.727 61.6288 144.524V144.482C61.6288 143.956 61.485 143.548 61.1973 143.256C60.9132 142.965 60.4818 142.82 59.9029 142.82C59.3028 142.82 58.8323 142.951 58.4913 143.214C58.1504 143.477 57.9107 143.757 57.7722 144.055L56.5791 143.629C56.7921 143.132 57.0762 142.745 57.4313 142.468C57.79 142.187 58.1806 141.992 58.6032 141.882C59.0293 141.768 59.4484 141.712 59.8603 141.712C60.1231 141.712 60.4249 141.744 60.7658 141.808C61.1103 141.868 61.4423 141.994 61.7619 142.186C62.0851 142.377 62.3532 142.667 62.5663 143.054C62.7793 143.441 62.8859 143.96 62.8859 144.609V150H61.6288V148.892H61.5649C61.4796 149.07 61.3376 149.26 61.1387 149.462C60.9399 149.664 60.6753 149.837 60.345 149.979C60.0148 150.121 59.6117 150.192 59.1359 150.192ZM59.3276 149.062C59.8248 149.062 60.2438 148.965 60.5847 148.77C60.9292 148.574 61.1884 148.322 61.3624 148.013C61.54 147.704 61.6288 147.379 61.6288 147.038V145.888C61.5755 145.952 61.4583 146.01 61.2772 146.064C61.0997 146.113 60.8937 146.158 60.6593 146.197C60.4285 146.232 60.203 146.264 59.9828 146.293C59.7662 146.317 59.5904 146.339 59.4555 146.357C59.1288 146.399 58.8234 146.468 58.5393 146.564C58.2587 146.657 58.0315 146.797 57.8575 146.985C57.687 147.17 57.6018 147.422 57.6018 147.741C57.6018 148.178 57.7634 148.509 58.0865 148.732C58.4132 148.952 58.8269 149.062 59.3276 149.062ZM65.1804 153.068V141.818H66.3948V143.118H66.544C66.6363 142.976 66.7642 142.795 66.9275 142.575C67.0944 142.351 67.3323 142.152 67.6413 141.978C67.9538 141.8 68.3764 141.712 68.909 141.712C69.598 141.712 70.2052 141.884 70.7308 142.228C71.2563 142.573 71.6665 143.061 71.9612 143.693C72.256 144.325 72.4034 145.071 72.4034 145.93C72.4034 146.797 72.256 147.548 71.9612 148.184C71.6665 148.816 71.2581 149.306 70.7361 149.654C70.2141 149.998 69.6122 150.17 68.9304 150.17C68.4048 150.17 67.984 150.083 67.6679 149.909C67.3519 149.732 67.1086 149.531 66.9382 149.308C66.7677 149.08 66.6363 148.892 66.544 148.743H66.4375V153.068H65.1804ZM66.4161 145.909C66.4161 146.527 66.5067 147.072 66.6878 147.544C66.8689 148.013 67.1335 148.381 67.4815 148.647C67.8295 148.91 68.2556 149.041 68.7599 149.041C69.2855 149.041 69.724 148.903 70.0756 148.626C70.4307 148.345 70.697 147.969 70.8746 147.496C71.0557 147.021 71.1463 146.491 71.1463 145.909C71.1463 145.334 71.0575 144.815 70.8799 144.354C70.7059 143.888 70.4414 143.521 70.0862 143.251C69.7347 142.978 69.2926 142.841 68.7599 142.841C68.2485 142.841 67.8188 142.971 67.4708 143.23C67.1228 143.485 66.86 143.844 66.6825 144.306C66.5049 144.764 66.4161 145.298 66.4161 145.909ZM74.321 153.068V141.818H75.5355V143.118H75.6846C75.7769 142.976 75.9048 142.795 76.0681 142.575C76.235 142.351 76.473 142.152 76.7819 141.978C77.0944 141.8 77.517 141.712 78.0497 141.712C78.7386 141.712 79.3458 141.884 79.8714 142.228C80.397 142.573 80.8071 143.061 81.1019 143.693C81.3966 144.325 81.544 145.071 81.544 145.93C81.544 146.797 81.3966 147.548 81.1019 148.184C80.8071 148.816 80.3987 149.306 79.8767 149.654C79.3547 149.998 78.7528 150.17 78.071 150.17C77.5454 150.17 77.1246 150.083 76.8085 149.909C76.4925 149.732 76.2492 149.531 76.0788 149.308C75.9083 149.08 75.7769 148.892 75.6846 148.743H75.5781V153.068H74.321ZM75.5568 145.909C75.5568 146.527 75.6473 147.072 75.8284 147.544C76.0095 148.013 76.2741 148.381 76.6221 148.647C76.9701 148.91 77.3963 149.041 77.9005 149.041C78.4261 149.041 78.8647 148.903 79.2162 148.626C79.5713 148.345 79.8377 147.969 80.0152 147.496C80.1963 147.021 80.2869 146.491 80.2869 145.909C80.2869 145.334 80.1981 144.815 80.0206 144.354C79.8465 143.888 79.582 143.521 79.2269 143.251C78.8753 142.978 78.4332 142.841 77.9005 142.841C77.3892 142.841 76.9595 142.971 76.6115 143.23C76.2635 143.485 76.0007 143.844 75.8231 144.306C75.6456 144.764 75.5568 145.298 75.5568 145.909Z" fill="white"/>
<path d="M185.348 143.651L184.219 143.97C184.148 143.782 184.043 143.599 183.905 143.422C183.77 143.24 183.585 143.091 183.351 142.974C183.116 142.857 182.816 142.798 182.451 142.798C181.95 142.798 181.533 142.914 181.199 143.145C180.869 143.372 180.703 143.661 180.703 144.013C180.703 144.325 180.817 144.572 181.044 144.753C181.272 144.934 181.627 145.085 182.11 145.206L183.324 145.504C184.056 145.682 184.601 145.953 184.96 146.319C185.318 146.681 185.498 147.148 185.498 147.72C185.498 148.189 185.363 148.608 185.093 148.977C184.826 149.347 184.453 149.638 183.974 149.851C183.495 150.064 182.937 150.17 182.301 150.17C181.467 150.17 180.776 149.989 180.229 149.627C179.683 149.265 179.336 148.736 179.191 148.04L180.384 147.741C180.498 148.182 180.712 148.512 181.028 148.732C181.348 148.952 181.765 149.062 182.28 149.062C182.866 149.062 183.331 148.938 183.676 148.69C184.024 148.437 184.198 148.136 184.198 147.784C184.198 147.5 184.098 147.262 183.9 147.07C183.701 146.875 183.395 146.729 182.983 146.634L181.62 146.314C180.87 146.136 180.32 145.861 179.968 145.488C179.62 145.112 179.446 144.641 179.446 144.077C179.446 143.615 179.576 143.207 179.835 142.852C180.098 142.496 180.455 142.218 180.906 142.015C181.36 141.813 181.875 141.712 182.451 141.712C183.26 141.712 183.896 141.889 184.358 142.244C184.823 142.599 185.153 143.068 185.348 143.651ZM187.39 150V141.818H188.604V143.097H188.711C188.881 142.66 189.157 142.321 189.536 142.079C189.916 141.834 190.373 141.712 190.905 141.712C191.445 141.712 191.894 141.834 192.253 142.079C192.615 142.321 192.898 142.66 193.1 143.097H193.185C193.395 142.674 193.709 142.338 194.128 142.09C194.547 141.838 195.05 141.712 195.636 141.712C196.367 141.712 196.965 141.941 197.431 142.399C197.896 142.853 198.128 143.562 198.128 144.524V150H196.871V144.524C196.871 143.92 196.706 143.489 196.376 143.23C196.046 142.971 195.657 142.841 195.209 142.841C194.634 142.841 194.188 143.015 193.872 143.363C193.556 143.707 193.398 144.144 193.398 144.673V150H192.12V144.396C192.12 143.931 191.969 143.556 191.667 143.272C191.365 142.985 190.976 142.841 190.501 142.841C190.174 142.841 189.869 142.928 189.584 143.102C189.304 143.276 189.077 143.517 188.903 143.826C188.732 144.132 188.647 144.485 188.647 144.886V150H187.39ZM202.835 150.192C202.316 150.192 201.846 150.094 201.423 149.899C201 149.7 200.665 149.414 200.416 149.041C200.168 148.665 200.043 148.21 200.043 147.678C200.043 147.209 200.136 146.829 200.32 146.538C200.505 146.243 200.752 146.012 201.061 145.845C201.37 145.678 201.711 145.554 202.084 145.472C202.46 145.387 202.838 145.32 203.218 145.27C203.715 145.206 204.118 145.158 204.427 145.126C204.74 145.091 204.967 145.032 205.109 144.95C205.255 144.869 205.328 144.727 205.328 144.524V144.482C205.328 143.956 205.184 143.548 204.896 143.256C204.612 142.965 204.18 142.82 203.602 142.82C203.002 142.82 202.531 142.951 202.19 143.214C201.849 143.477 201.609 143.757 201.471 144.055L200.278 143.629C200.491 143.132 200.775 142.745 201.13 142.468C201.489 142.187 201.879 141.992 202.302 141.882C202.728 141.768 203.147 141.712 203.559 141.712C203.822 141.712 204.124 141.744 204.465 141.808C204.809 141.868 205.141 141.994 205.461 142.186C205.784 142.377 206.052 142.667 206.265 143.054C206.478 143.441 206.585 143.96 206.585 144.609V150H205.328V148.892H205.264C205.178 149.07 205.036 149.26 204.837 149.462C204.639 149.664 204.374 149.837 204.044 149.979C203.714 150.121 203.31 150.192 202.835 150.192ZM203.026 149.062C203.524 149.062 203.943 148.965 204.283 148.77C204.628 148.574 204.887 148.322 205.061 148.013C205.239 147.704 205.328 147.379 205.328 147.038V145.888C205.274 145.952 205.157 146.01 204.976 146.064C204.798 146.113 204.592 146.158 204.358 146.197C204.127 146.232 203.902 146.264 203.682 146.293C203.465 146.317 203.289 146.339 203.154 146.357C202.828 146.399 202.522 146.468 202.238 146.564C201.957 146.657 201.73 146.797 201.556 146.985C201.386 147.17 201.301 147.422 201.301 147.741C201.301 148.178 201.462 148.509 201.785 148.732C202.112 148.952 202.526 149.062 203.026 149.062ZM208.879 150V141.818H210.094V143.054H210.179C210.328 142.649 210.598 142.321 210.988 142.069C211.379 141.816 211.819 141.69 212.309 141.69C212.402 141.69 212.517 141.692 212.656 141.696C212.794 141.699 212.899 141.705 212.97 141.712V142.99C212.927 142.979 212.83 142.963 212.677 142.942C212.528 142.917 212.37 142.905 212.203 142.905C211.805 142.905 211.45 142.988 211.138 143.155C210.829 143.319 210.584 143.546 210.403 143.837C210.225 144.125 210.136 144.453 210.136 144.822V150H208.879ZM218.531 141.818V142.884H214.291V141.818H218.531ZM215.527 139.858H216.784V147.656C216.784 148.011 216.835 148.278 216.938 148.455C217.045 148.629 217.18 148.746 217.343 148.807C217.51 148.864 217.686 148.892 217.871 148.892C218.009 148.892 218.123 148.885 218.211 148.871C218.3 148.853 218.371 148.839 218.425 148.828L218.68 149.957C218.595 149.989 218.476 150.021 218.323 150.053C218.171 150.089 217.977 150.107 217.743 150.107C217.388 150.107 217.04 150.03 216.699 149.877C216.361 149.725 216.081 149.492 215.857 149.18C215.637 148.867 215.527 148.473 215.527 147.997V139.858ZM223.658 150.17C222.891 150.17 222.23 149.989 221.676 149.627C221.123 149.265 220.696 148.766 220.398 148.13C220.1 147.495 219.951 146.768 219.951 145.952C219.951 145.121 220.103 144.387 220.409 143.752C220.718 143.113 221.147 142.614 221.698 142.255C222.252 141.893 222.898 141.712 223.637 141.712C224.212 141.712 224.73 141.818 225.192 142.031C225.654 142.244 226.032 142.543 226.327 142.926C226.621 143.31 226.804 143.757 226.875 144.268H225.618C225.522 143.896 225.309 143.565 224.979 143.278C224.652 142.987 224.212 142.841 223.658 142.841C223.168 142.841 222.738 142.969 222.369 143.224C222.003 143.477 221.717 143.833 221.511 144.295C221.309 144.753 221.208 145.291 221.208 145.909C221.208 146.541 221.307 147.092 221.506 147.56C221.708 148.029 221.993 148.393 222.358 148.652C222.728 148.912 223.161 149.041 223.658 149.041C223.985 149.041 224.281 148.984 224.548 148.871C224.814 148.757 225.039 148.594 225.224 148.381C225.409 148.168 225.54 147.912 225.618 147.614H226.875C226.804 148.097 226.629 148.532 226.348 148.919C226.071 149.302 225.703 149.608 225.245 149.835C224.791 150.059 224.262 150.17 223.658 150.17ZM232.037 150.17C231.298 150.17 230.65 149.995 230.093 149.643C229.539 149.292 229.105 148.8 228.793 148.168C228.484 147.536 228.33 146.797 228.33 145.952C228.33 145.099 228.484 144.355 228.793 143.72C229.105 143.084 229.539 142.591 230.093 142.239C230.65 141.887 231.298 141.712 232.037 141.712C232.776 141.712 233.422 141.887 233.976 142.239C234.533 142.591 234.967 143.084 235.276 143.72C235.588 144.355 235.744 145.099 235.744 145.952C235.744 146.797 235.588 147.536 235.276 148.168C234.967 148.8 234.533 149.292 233.976 149.643C233.422 149.995 232.776 150.17 232.037 150.17ZM232.037 149.041C232.598 149.041 233.06 148.897 233.422 148.61C233.784 148.322 234.052 147.944 234.226 147.475C234.4 147.006 234.487 146.499 234.487 145.952C234.487 145.405 234.4 144.895 234.226 144.423C234.052 143.951 233.784 143.569 233.422 143.278C233.06 142.987 232.598 142.841 232.037 142.841C231.476 142.841 231.014 142.987 230.652 143.278C230.29 143.569 230.022 143.951 229.848 144.423C229.674 144.895 229.587 145.405 229.587 145.952C229.587 146.499 229.674 147.006 229.848 147.475C230.022 147.944 230.29 148.322 230.652 148.61C231.014 148.897 231.476 149.041 232.037 149.041ZM238.92 145.078V150H237.663V141.818H238.878V143.097H238.984C239.176 142.681 239.467 142.347 239.858 142.095C240.248 141.839 240.753 141.712 241.371 141.712C241.925 141.712 242.409 141.825 242.825 142.053C243.24 142.276 243.563 142.617 243.794 143.075C244.025 143.53 244.141 144.105 244.141 144.801V150H242.883V144.886C242.883 144.244 242.717 143.743 242.383 143.384C242.049 143.022 241.591 142.841 241.008 142.841C240.607 142.841 240.248 142.928 239.932 143.102C239.62 143.276 239.373 143.53 239.192 143.864C239.011 144.197 238.92 144.602 238.92 145.078ZM249.996 141.818V142.884H245.756V141.818H249.996ZM246.992 139.858H248.249V147.656C248.249 148.011 248.3 148.278 248.403 148.455C248.51 148.629 248.645 148.746 248.808 148.807C248.975 148.864 249.151 148.892 249.335 148.892C249.474 148.892 249.588 148.885 249.676 148.871C249.765 148.853 249.836 148.839 249.889 148.828L250.145 149.957C250.06 149.989 249.941 150.021 249.788 150.053C249.635 150.089 249.442 150.107 249.208 150.107C248.852 150.107 248.504 150.03 248.164 149.877C247.826 149.725 247.546 149.492 247.322 149.18C247.102 148.867 246.992 148.473 246.992 147.997V139.858ZM251.887 150V141.818H253.101V143.054H253.187C253.336 142.649 253.606 142.321 253.996 142.069C254.387 141.816 254.827 141.69 255.317 141.69C255.41 141.69 255.525 141.692 255.664 141.696C255.802 141.699 255.907 141.705 255.978 141.712V142.99C255.935 142.979 255.838 142.963 255.685 142.942C255.536 142.917 255.378 142.905 255.211 142.905C254.813 142.905 254.458 142.988 254.145 143.155C253.836 143.319 253.591 143.546 253.41 143.837C253.233 144.125 253.144 144.453 253.144 144.822V150H251.887ZM259.876 150.192C259.357 150.192 258.887 150.094 258.464 149.899C258.041 149.7 257.706 149.414 257.457 149.041C257.209 148.665 257.084 148.21 257.084 147.678C257.084 147.209 257.177 146.829 257.361 146.538C257.546 146.243 257.793 146.012 258.102 145.845C258.411 145.678 258.752 145.554 259.125 145.472C259.501 145.387 259.879 145.32 260.259 145.27C260.756 145.206 261.159 145.158 261.468 145.126C261.781 145.091 262.008 145.032 262.15 144.95C262.296 144.869 262.369 144.727 262.369 144.524V144.482C262.369 143.956 262.225 143.548 261.937 143.256C261.653 142.965 261.222 142.82 260.643 142.82C260.043 142.82 259.572 142.951 259.231 143.214C258.89 143.477 258.65 143.757 258.512 144.055L257.319 143.629C257.532 143.132 257.816 142.745 258.171 142.468C258.53 142.187 258.92 141.992 259.343 141.882C259.769 141.768 260.188 141.712 260.6 141.712C260.863 141.712 261.165 141.744 261.506 141.808C261.85 141.868 262.182 141.994 262.502 142.186C262.825 142.377 263.093 142.667 263.306 143.054C263.519 143.441 263.626 143.96 263.626 144.609V150H262.369V148.892H262.305C262.219 149.07 262.077 149.26 261.878 149.462C261.68 149.664 261.415 149.837 261.085 149.979C260.755 150.121 260.351 150.192 259.876 150.192ZM260.067 149.062C260.565 149.062 260.984 148.965 261.324 148.77C261.669 148.574 261.928 148.322 262.102 148.013C262.28 147.704 262.369 147.379 262.369 147.038V145.888C262.315 145.952 262.198 146.01 262.017 146.064C261.839 146.113 261.633 146.158 261.399 146.197C261.168 146.232 260.943 146.264 260.723 146.293C260.506 146.317 260.33 146.339 260.195 146.357C259.869 146.399 259.563 146.468 259.279 146.564C258.998 146.657 258.771 146.797 258.597 146.985C258.427 147.17 258.342 147.422 258.342 147.741C258.342 148.178 258.503 148.509 258.826 148.732C259.153 148.952 259.567 149.062 260.067 149.062ZM269.244 150.17C268.477 150.17 267.816 149.989 267.262 149.627C266.708 149.265 266.282 148.766 265.984 148.13C265.686 147.495 265.537 146.768 265.537 145.952C265.537 145.121 265.689 144.387 265.995 143.752C266.304 143.113 266.733 142.614 267.284 142.255C267.838 141.893 268.484 141.712 269.223 141.712C269.798 141.712 270.316 141.818 270.778 142.031C271.24 142.244 271.618 142.543 271.913 142.926C272.207 143.31 272.39 143.757 272.461 144.268H271.204C271.108 143.896 270.895 143.565 270.565 143.278C270.238 142.987 269.798 142.841 269.244 142.841C268.754 142.841 268.324 142.969 267.955 143.224C267.589 143.477 267.303 143.833 267.097 144.295C266.895 144.753 266.794 145.291 266.794 145.909C266.794 146.541 266.893 147.092 267.092 147.56C267.294 148.029 267.578 148.393 267.944 148.652C268.314 148.912 268.747 149.041 269.244 149.041C269.571 149.041 269.867 148.984 270.134 148.871C270.4 148.757 270.625 148.594 270.81 148.381C270.995 148.168 271.126 147.912 271.204 147.614H272.461C272.39 148.097 272.214 148.532 271.934 148.919C271.657 149.302 271.289 149.608 270.831 149.835C270.377 150.059 269.848 150.17 269.244 150.17ZM277.857 141.818V142.884H273.617V141.818H277.857ZM274.853 139.858H276.11V147.656C276.11 148.011 276.162 148.278 276.265 148.455C276.371 148.629 276.506 148.746 276.669 148.807C276.836 148.864 277.012 148.892 277.197 148.892C277.335 148.892 277.449 148.885 277.538 148.871C277.626 148.853 277.697 148.839 277.751 148.828L278.006 149.957C277.921 149.989 277.802 150.021 277.65 150.053C277.497 150.089 277.303 150.107 277.069 150.107C276.714 150.107 276.366 150.03 276.025 149.877C275.688 149.725 275.407 149.492 275.183 149.18C274.963 148.867 274.853 148.473 274.853 147.997V139.858Z" fill="white"/>
<g clip-path="url(#clip0_77_93)">
<path d="M228.489 0L227.692 2.73381V82.0627L228.489 82.8656L264.978 61.0993L228.489 0Z" fill="#0D60DA"/>
<path d="M228.489 0L192 61.0993L228.489 82.8659V44.362V0Z" fill="#287EFF"/>
<path d="M228.489 89.8379L228.04 90.3904V118.649L228.489 119.973L265 68.0825L228.489 89.8379Z" fill="#0E5DD1"/>
<path d="M228.489 119.973V89.8375L192 68.0821L228.489 119.973Z" fill="#287EFF"/>
<path d="M228.489 82.8655L264.977 61.0995L228.489 44.3622V82.8655Z" fill="#0E50AF"/>
<path d="M192 61.0995L228.489 82.8655V44.3622L192 61.0995Z" fill="#1068E8"/>
</g>
<defs>
<linearGradient id="paint0_linear_77_93" x1="59.5969" y1="26.2273" x2="6.68445" y2="64.0776" gradientUnits="userSpaceOnUse">
<stop stop-color="#0D6EFD"/>
<stop offset="1" stop-color="#103B7B"/>
</linearGradient>
<linearGradient id="paint1_linear_77_93" x1="60.2899" y1="-14.1325" x2="-24.4471" y2="-9.04436" gradientUnits="userSpaceOnUse">
<stop stop-color="#0067FF"/>
<stop offset="1" stop-color="#3F8CFF"/>
</linearGradient>
<linearGradient id="paint2_linear_77_93" x1="39.9161" y1="39.9161" x2="36.4464" y2="-19.4741" gradientUnits="userSpaceOnUse">
<stop stop-color="#0D6EFD"/>
<stop offset="1" stop-color="#103B7B"/>
</linearGradient>
<clipPath id="clip0_77_93">
<rect width="73" height="120" fill="white" transform="translate(192)"/>
</clipPath>
</defs>
</svg>
