<svg width="408" height="394" viewBox="0 0 408 394" fill="none" xmlns="http://www.w3.org/2000/svg">
<rect width="50.7551" height="50.6" transform="matrix(0.866906 -0.498472 2.21205e-08 1 44.0001 50.6)" fill="url(#paint0_linear_62_29)"/>
<rect width="50.7551" height="50.6" transform="matrix(0.866906 0.498472 -2.21205e-08 1 0 25.3)" fill="url(#paint1_linear_62_29)"/>
<rect width="50.7551" height="50.7551" transform="matrix(0.866906 -0.498472 0.866906 0.498472 0 25.3)" fill="url(#paint2_linear_62_29)"/>
<path d="M329.175 112.655V107.818H330.432V116H329.175V114.615H329.089C328.898 115.031 328.599 115.384 328.195 115.675C327.79 115.963 327.278 116.107 326.66 116.107C326.149 116.107 325.695 115.995 325.297 115.771C324.899 115.544 324.587 115.203 324.359 114.748C324.132 114.29 324.018 113.713 324.018 113.017V107.818H325.276V112.932C325.276 113.528 325.442 114.004 325.776 114.359C326.114 114.714 326.543 114.892 327.065 114.892C327.378 114.892 327.696 114.812 328.019 114.652C328.346 114.493 328.619 114.248 328.839 113.917C329.063 113.587 329.175 113.166 329.175 112.655ZM338.53 109.651L337.4 109.97C337.329 109.782 337.225 109.599 337.086 109.422C336.951 109.24 336.767 109.091 336.532 108.974C336.298 108.857 335.998 108.798 335.632 108.798C335.131 108.798 334.714 108.914 334.38 109.145C334.05 109.372 333.885 109.661 333.885 110.013C333.885 110.325 333.998 110.572 334.226 110.753C334.453 110.934 334.808 111.085 335.291 111.206L336.506 111.504C337.237 111.682 337.782 111.953 338.141 112.319C338.5 112.681 338.679 113.148 338.679 113.72C338.679 114.189 338.544 114.608 338.274 114.977C338.008 115.347 337.635 115.638 337.155 115.851C336.676 116.064 336.118 116.17 335.483 116.17C334.648 116.17 333.958 115.989 333.411 115.627C332.864 115.265 332.518 114.736 332.372 114.04L333.565 113.741C333.679 114.182 333.894 114.512 334.21 114.732C334.529 114.952 334.947 115.062 335.462 115.062C336.047 115.062 336.513 114.938 336.857 114.69C337.205 114.437 337.379 114.136 337.379 113.784C337.379 113.5 337.28 113.262 337.081 113.07C336.882 112.875 336.577 112.729 336.165 112.634L334.801 112.314C334.052 112.136 333.501 111.861 333.15 111.488C332.802 111.112 332.628 110.641 332.628 110.077C332.628 109.615 332.757 109.207 333.017 108.852C333.279 108.496 333.636 108.218 334.087 108.015C334.542 107.813 335.057 107.712 335.632 107.712C336.442 107.712 337.077 107.889 337.539 108.244C338.004 108.599 338.334 109.068 338.53 109.651ZM344.002 116.17C343.213 116.17 342.533 115.996 341.961 115.648C341.393 115.297 340.955 114.807 340.646 114.178C340.34 113.546 340.188 112.811 340.188 111.973C340.188 111.135 340.34 110.396 340.646 109.757C340.955 109.114 341.384 108.614 341.935 108.255C342.489 107.893 343.135 107.712 343.874 107.712C344.3 107.712 344.721 107.783 345.136 107.925C345.552 108.067 345.93 108.298 346.271 108.617C346.612 108.933 346.883 109.352 347.086 109.874C347.288 110.396 347.389 111.039 347.389 111.803V112.335H341.083V111.249H346.111C346.111 110.787 346.019 110.375 345.834 110.013C345.653 109.651 345.394 109.365 345.056 109.155C344.722 108.946 344.328 108.841 343.874 108.841C343.373 108.841 342.94 108.965 342.574 109.214C342.212 109.459 341.933 109.778 341.738 110.173C341.542 110.567 341.445 110.989 341.445 111.44V112.165C341.445 112.783 341.551 113.306 341.764 113.736C341.981 114.162 342.281 114.487 342.665 114.711C343.048 114.931 343.494 115.041 344.002 115.041C344.332 115.041 344.63 114.995 344.896 114.903C345.166 114.807 345.399 114.665 345.594 114.477C345.79 114.285 345.94 114.047 346.047 113.763L347.262 114.104C347.134 114.516 346.919 114.878 346.617 115.19C346.315 115.499 345.942 115.741 345.498 115.915C345.054 116.085 344.556 116.17 344.002 116.17ZM349.302 116V107.818H350.516V109.054H350.601C350.751 108.649 351.02 108.321 351.411 108.069C351.802 107.816 352.242 107.69 352.732 107.69C352.824 107.69 352.94 107.692 353.078 107.696C353.217 107.699 353.322 107.705 353.393 107.712V108.99C353.35 108.979 353.252 108.963 353.1 108.942C352.95 108.917 352.792 108.905 352.626 108.905C352.228 108.905 351.873 108.988 351.56 109.155C351.251 109.319 351.006 109.546 350.825 109.837C350.648 110.125 350.559 110.453 350.559 110.822V116H349.302Z" fill="white"/>
<path d="M18.581 129H17.196L21.2017 118.091H22.5653L26.571 129H25.1861L21.9261 119.817H21.8409L18.581 129ZM19.0923 124.739H24.6747V125.911H19.0923V124.739ZM29.5913 118.091V129H28.2702V118.091H29.5913ZM39.3778 129.17C38.6959 129.17 38.094 128.998 37.572 128.654C37.05 128.306 36.6416 127.816 36.3469 127.184C36.0521 126.548 35.9047 125.797 35.9047 124.93C35.9047 124.071 36.0521 123.325 36.3469 122.693C36.6416 122.061 37.0518 121.573 37.5773 121.228C38.1029 120.884 38.7101 120.712 39.3991 120.712C39.9317 120.712 40.3525 120.8 40.6615 120.978C40.974 121.152 41.2119 121.351 41.3753 121.575C41.5422 121.795 41.6718 121.976 41.7641 122.118H41.8707V118.091H43.1278V129H41.9133V127.743H41.7641C41.6718 127.892 41.5404 128.08 41.3699 128.308C41.1995 128.531 40.9562 128.732 40.6402 128.909C40.3241 129.083 39.9033 129.17 39.3778 129.17ZM39.5482 128.041C40.0525 128.041 40.4786 127.91 40.8266 127.647C41.1746 127.381 41.4392 127.013 41.6203 126.544C41.8014 126.072 41.892 125.527 41.892 124.909C41.892 124.298 41.8032 123.764 41.6256 123.306C41.4481 122.844 41.1853 122.485 40.8373 122.23C40.4893 121.971 40.0596 121.841 39.5482 121.841C39.0155 121.841 38.5716 121.978 38.2165 122.251C37.865 122.521 37.6004 122.888 37.4229 123.354C37.2488 123.815 37.1618 124.334 37.1618 124.909C37.1618 125.491 37.2506 126.021 37.4282 126.496C37.6093 126.969 37.8756 127.345 38.2272 127.626C38.5823 127.903 39.0226 128.041 39.5482 128.041ZM48.0123 129.192C47.4939 129.192 47.0233 129.094 46.6008 128.899C46.1782 128.7 45.8426 128.414 45.594 128.041C45.3454 127.665 45.2211 127.21 45.2211 126.678C45.2211 126.209 45.3135 125.829 45.4981 125.538C45.6828 125.243 45.9296 125.012 46.2385 124.845C46.5475 124.678 46.8884 124.554 47.2613 124.472C47.6377 124.387 48.0159 124.32 48.3959 124.27C48.893 124.206 49.2961 124.158 49.605 124.126C49.9175 124.091 50.1448 124.032 50.2868 123.95C50.4324 123.869 50.5052 123.727 50.5052 123.524V123.482C50.5052 122.956 50.3614 122.548 50.0738 122.256C49.7897 121.965 49.3582 121.82 48.7794 121.82C48.1792 121.82 47.7087 121.951 47.3678 122.214C47.0269 122.477 46.7872 122.757 46.6487 123.055L45.4555 122.629C45.6686 122.132 45.9527 121.745 46.3078 121.468C46.6665 121.187 47.0571 120.992 47.4797 120.882C47.9058 120.768 48.3248 120.712 48.7368 120.712C48.9996 120.712 49.3014 120.744 49.6423 120.808C49.9868 120.868 50.3188 120.994 50.6384 121.186C50.9616 121.377 51.2297 121.667 51.4427 122.054C51.6558 122.441 51.7623 122.96 51.7623 123.609V129H50.5052V127.892H50.4413C50.3561 128.07 50.214 128.26 50.0152 128.462C49.8163 128.664 49.5518 128.837 49.2215 128.979C48.8912 129.121 48.4882 129.192 48.0123 129.192ZM48.2041 128.062C48.7013 128.062 49.1203 127.965 49.4612 127.77C49.8057 127.574 50.0649 127.322 50.2389 127.013C50.4165 126.704 50.5052 126.379 50.5052 126.038V124.888C50.452 124.952 50.3348 125.01 50.1537 125.064C49.9761 125.113 49.7702 125.158 49.5358 125.197C49.305 125.232 49.0795 125.264 48.8593 125.293C48.6427 125.317 48.4669 125.339 48.3319 125.357C48.0052 125.399 47.6998 125.468 47.4157 125.564C47.1352 125.657 46.9079 125.797 46.7339 125.985C46.5635 126.17 46.4782 126.422 46.4782 126.741C46.4782 127.178 46.6398 127.509 46.963 127.732C47.2897 127.952 47.7034 128.062 48.2041 128.062ZM54.0568 132.068V120.818H55.2713V122.118H55.4205C55.5128 121.976 55.6406 121.795 55.804 121.575C55.9709 121.351 56.2088 121.152 56.5178 120.978C56.8303 120.8 57.2528 120.712 57.7855 120.712C58.4744 120.712 59.0817 120.884 59.6072 121.228C60.1328 121.573 60.543 122.061 60.8377 122.693C61.1325 123.325 61.2798 124.071 61.2798 124.93C61.2798 125.797 61.1325 126.548 60.8377 127.184C60.543 127.816 60.1346 128.306 59.6126 128.654C59.0906 128.998 58.4886 129.17 57.8068 129.17C57.2813 129.17 56.8604 129.083 56.5444 128.909C56.2283 128.732 55.9851 128.531 55.8146 128.308C55.6442 128.08 55.5128 127.892 55.4205 127.743H55.3139V132.068H54.0568ZM55.2926 124.909C55.2926 125.527 55.3832 126.072 55.5643 126.544C55.7454 127.013 56.0099 127.381 56.358 127.647C56.706 127.91 57.1321 128.041 57.6364 128.041C58.1619 128.041 58.6005 127.903 58.9521 127.626C59.3072 127.345 59.5735 126.969 59.7511 126.496C59.9322 126.021 60.0227 125.491 60.0227 124.909C60.0227 124.334 59.9339 123.815 59.7564 123.354C59.5824 122.888 59.3178 122.521 58.9627 122.251C58.6112 121.978 58.169 121.841 57.6364 121.841C57.125 121.841 56.6953 121.971 56.3473 122.23C55.9993 122.485 55.7365 122.844 55.5589 123.306C55.3814 123.764 55.2926 124.298 55.2926 124.909ZM63.1974 132.068V120.818H64.4119V122.118H64.5611C64.6534 121.976 64.7813 121.795 64.9446 121.575C65.1115 121.351 65.3494 121.152 65.6584 120.978C65.9709 120.8 66.3935 120.712 66.9261 120.712C67.6151 120.712 68.2223 120.884 68.7479 121.228C69.2734 121.573 69.6836 122.061 69.9783 122.693C70.2731 123.325 70.4205 124.071 70.4205 124.93C70.4205 125.797 70.2731 126.548 69.9783 127.184C69.6836 127.816 69.2752 128.306 68.7532 128.654C68.2312 128.998 67.6293 129.17 66.9474 129.17C66.4219 129.17 66.0011 129.083 65.685 128.909C65.369 128.732 65.1257 128.531 64.9553 128.308C64.7848 128.08 64.6534 127.892 64.5611 127.743H64.4545V132.068H63.1974ZM64.4332 124.909C64.4332 125.527 64.5238 126.072 64.7049 126.544C64.886 127.013 65.1506 127.381 65.4986 127.647C65.8466 127.91 66.2727 128.041 66.777 128.041C67.3026 128.041 67.7411 127.903 68.0927 127.626C68.4478 127.345 68.7141 126.969 68.8917 126.496C69.0728 126.021 69.1634 125.491 69.1634 124.909C69.1634 124.334 69.0746 123.815 68.897 123.354C68.723 122.888 68.4585 122.521 68.1033 122.251C67.7518 121.978 67.3097 121.841 66.777 121.841C66.2656 121.841 65.8359 121.971 65.4879 122.23C65.1399 122.485 64.8771 122.844 64.6996 123.306C64.522 123.764 64.4332 124.298 64.4332 124.909Z" fill="white"/>
<path d="M159.039 85V76.8182H160.253V78.054H160.338C160.487 77.6491 160.757 77.3207 161.148 77.0685C161.539 76.8164 161.979 76.6903 162.469 76.6903C162.561 76.6903 162.677 76.6921 162.815 76.6957C162.954 76.6992 163.058 76.7045 163.129 76.7116V77.9901C163.087 77.9794 162.989 77.9634 162.837 77.9421C162.687 77.9173 162.529 77.9048 162.362 77.9048C161.965 77.9048 161.61 77.9883 161.297 78.1552C160.988 78.3185 160.743 78.5458 160.562 78.837C160.384 79.1246 160.296 79.4531 160.296 79.8224V85H159.039ZM167.801 85.1705C167.013 85.1705 166.333 84.9964 165.761 84.6484C165.193 84.2969 164.754 83.8068 164.445 83.1783C164.14 82.5462 163.987 81.8111 163.987 80.973C163.987 80.1349 164.14 79.3963 164.445 78.7571C164.754 78.1143 165.184 77.6136 165.734 77.255C166.288 76.8928 166.935 76.7116 167.673 76.7116C168.099 76.7116 168.52 76.7827 168.936 76.9247C169.351 77.0668 169.729 77.2976 170.07 77.6172C170.411 77.9332 170.683 78.3523 170.885 78.8743C171.088 79.3963 171.189 80.0391 171.189 80.8026V81.3352H164.882V80.2486H169.91C169.91 79.7869 169.818 79.375 169.633 79.0128C169.452 78.6506 169.193 78.3647 168.856 78.1552C168.522 77.9457 168.128 77.8409 167.673 77.8409C167.172 77.8409 166.739 77.9652 166.373 78.2138C166.011 78.4588 165.732 78.7784 165.537 79.1726C165.342 79.5668 165.244 79.9893 165.244 80.4403V81.1648C165.244 81.7827 165.351 82.3065 165.564 82.7362C165.78 83.1623 166.08 83.4872 166.464 83.7109C166.848 83.9311 167.293 84.0412 167.801 84.0412C168.131 84.0412 168.43 83.995 168.696 83.9027C168.966 83.8068 169.198 83.6648 169.394 83.4766C169.589 83.2848 169.74 83.0469 169.846 82.7628L171.061 83.1037C170.933 83.5156 170.718 83.8778 170.416 84.1903C170.115 84.4993 169.742 84.7408 169.298 84.9148C168.854 85.0852 168.355 85.1705 167.801 85.1705ZM178.897 78.6506L177.767 78.9702C177.696 78.782 177.591 78.5991 177.453 78.4215C177.318 78.2404 177.133 78.0913 176.899 77.9741C176.665 77.8569 176.365 77.7983 175.999 77.7983C175.498 77.7983 175.081 77.9137 174.747 78.1445C174.417 78.3718 174.252 78.6612 174.252 79.0128C174.252 79.3253 174.365 79.5721 174.593 79.7532C174.82 79.9343 175.175 80.0852 175.658 80.206L176.872 80.5043C177.604 80.6818 178.149 80.9535 178.508 81.3192C178.866 81.6815 179.046 82.1484 179.046 82.7202C179.046 83.1889 178.911 83.608 178.641 83.9773C178.375 84.3466 178.002 84.6378 177.522 84.8509C177.043 85.0639 176.485 85.1705 175.85 85.1705C175.015 85.1705 174.324 84.9893 173.778 84.6271C173.231 84.2649 172.884 83.7358 172.739 83.0398L173.932 82.7415C174.046 83.1818 174.261 83.5121 174.577 83.7322C174.896 83.9524 175.313 84.0625 175.828 84.0625C176.414 84.0625 176.879 83.9382 177.224 83.6896C177.572 83.4375 177.746 83.1357 177.746 82.7841C177.746 82.5 177.647 82.2621 177.448 82.0703C177.249 81.875 176.943 81.7294 176.531 81.6335L175.168 81.3139C174.419 81.1364 173.868 80.8612 173.517 80.4883C173.169 80.1119 172.995 79.6413 172.995 79.0767C172.995 78.6151 173.124 78.2067 173.383 77.8516C173.646 77.4964 174.003 77.2177 174.454 77.0153C174.909 76.8129 175.424 76.7116 175.999 76.7116C176.808 76.7116 177.444 76.8892 177.906 77.2443C178.371 77.5994 178.701 78.0682 178.897 78.6506ZM186.094 81.6548V76.8182H187.351V85H186.094V83.6151H186.009C185.817 84.0305 185.519 84.3839 185.114 84.6751C184.709 84.9627 184.198 85.1065 183.58 85.1065C183.069 85.1065 182.614 84.9947 182.216 84.771C181.819 84.5437 181.506 84.2028 181.279 83.7482C181.052 83.2901 180.938 82.7131 180.938 82.017V76.8182H182.195V81.9318C182.195 82.5284 182.362 83.0043 182.696 83.3594C183.033 83.7145 183.463 83.892 183.985 83.892C184.297 83.892 184.615 83.8121 184.938 83.6523C185.265 83.4925 185.538 83.2475 185.759 82.9173C185.982 82.587 186.094 82.1662 186.094 81.6548ZM190.911 74.0909V85H189.654V74.0909H190.911ZM196.772 76.8182V77.8835H192.532V76.8182H196.772ZM193.767 74.858H195.024V82.6562C195.024 83.0114 195.076 83.2777 195.179 83.4553C195.285 83.6293 195.42 83.7464 195.584 83.8068C195.751 83.8636 195.926 83.892 196.111 83.892C196.25 83.892 196.363 83.8849 196.452 83.8707C196.541 83.853 196.612 83.8388 196.665 83.8281L196.921 84.9574C196.836 84.9893 196.717 85.0213 196.564 85.0533C196.411 85.0888 196.218 85.1065 195.983 85.1065C195.628 85.1065 195.28 85.0302 194.939 84.8775C194.602 84.7248 194.321 84.4922 194.098 84.1797C193.877 83.8672 193.767 83.473 193.767 82.9972V74.858Z" fill="white"/>
<path d="M325.946 199.651L324.817 199.97C324.745 199.782 324.641 199.599 324.502 199.422C324.367 199.24 324.183 199.091 323.948 198.974C323.714 198.857 323.414 198.798 323.048 198.798C322.547 198.798 322.13 198.914 321.796 199.145C321.466 199.372 321.301 199.661 321.301 200.013C321.301 200.325 321.415 200.572 321.642 200.753C321.869 200.934 322.224 201.085 322.707 201.206L323.922 201.504C324.653 201.682 325.198 201.953 325.557 202.319C325.916 202.681 326.095 203.148 326.095 203.72C326.095 204.189 325.96 204.608 325.69 204.977C325.424 205.347 325.051 205.638 324.571 205.851C324.092 206.064 323.535 206.17 322.899 206.17C322.064 206.17 321.374 205.989 320.827 205.627C320.28 205.265 319.934 204.736 319.788 204.04L320.981 203.741C321.095 204.182 321.31 204.512 321.626 204.732C321.945 204.952 322.363 205.062 322.878 205.062C323.464 205.062 323.929 204.938 324.273 204.69C324.621 204.437 324.795 204.136 324.795 203.784C324.795 203.5 324.696 203.262 324.497 203.07C324.298 202.875 323.993 202.729 323.581 202.634L322.217 202.314C321.468 202.136 320.917 201.861 320.566 201.488C320.218 201.112 320.044 200.641 320.044 200.077C320.044 199.615 320.173 199.207 320.433 198.852C320.695 198.496 321.052 198.218 321.503 198.015C321.958 197.813 322.473 197.712 323.048 197.712C323.858 197.712 324.493 197.889 324.955 198.244C325.42 198.599 325.75 199.068 325.946 199.651ZM331.311 206.17C330.544 206.17 329.884 205.989 329.33 205.627C328.776 205.265 328.349 204.766 328.051 204.13C327.753 203.495 327.604 202.768 327.604 201.952C327.604 201.121 327.756 200.387 328.062 199.752C328.371 199.113 328.8 198.614 329.351 198.255C329.905 197.893 330.551 197.712 331.29 197.712C331.865 197.712 332.384 197.818 332.845 198.031C333.307 198.244 333.685 198.543 333.98 198.926C334.275 199.31 334.457 199.757 334.528 200.268H333.271C333.175 199.896 332.962 199.565 332.632 199.278C332.305 198.987 331.865 198.841 331.311 198.841C330.821 198.841 330.391 198.969 330.022 199.224C329.656 199.477 329.37 199.833 329.164 200.295C328.962 200.753 328.861 201.291 328.861 201.909C328.861 202.541 328.96 203.092 329.159 203.56C329.362 204.029 329.646 204.393 330.011 204.652C330.381 204.912 330.814 205.041 331.311 205.041C331.638 205.041 331.934 204.984 332.201 204.871C332.467 204.757 332.692 204.594 332.877 204.381C333.062 204.168 333.193 203.912 333.271 203.614H334.528C334.457 204.097 334.282 204.532 334.001 204.919C333.724 205.302 333.357 205.608 332.898 205.835C332.444 206.059 331.915 206.17 331.311 206.17ZM339.69 206.17C338.951 206.17 338.303 205.995 337.746 205.643C337.192 205.292 336.759 204.8 336.446 204.168C336.137 203.536 335.983 202.797 335.983 201.952C335.983 201.099 336.137 200.355 336.446 199.72C336.759 199.084 337.192 198.591 337.746 198.239C338.303 197.887 338.951 197.712 339.69 197.712C340.429 197.712 341.075 197.887 341.629 198.239C342.186 198.591 342.62 199.084 342.929 199.72C343.241 200.355 343.397 201.099 343.397 201.952C343.397 202.797 343.241 203.536 342.929 204.168C342.62 204.8 342.186 205.292 341.629 205.643C341.075 205.995 340.429 206.17 339.69 206.17ZM339.69 205.041C340.251 205.041 340.713 204.897 341.075 204.61C341.437 204.322 341.705 203.944 341.879 203.475C342.053 203.006 342.14 202.499 342.14 201.952C342.14 201.405 342.053 200.895 341.879 200.423C341.705 199.951 341.437 199.569 341.075 199.278C340.713 198.987 340.251 198.841 339.69 198.841C339.129 198.841 338.667 198.987 338.305 199.278C337.943 199.569 337.675 199.951 337.501 200.423C337.327 200.895 337.24 201.405 337.24 201.952C337.24 202.499 337.327 203.006 337.501 203.475C337.675 203.944 337.943 204.322 338.305 204.61C338.667 204.897 339.129 205.041 339.69 205.041ZM345.316 206V197.818H346.531V199.054H346.616C346.765 198.649 347.035 198.321 347.426 198.069C347.816 197.816 348.257 197.69 348.747 197.69C348.839 197.69 348.954 197.692 349.093 197.696C349.231 197.699 349.336 197.705 349.407 197.712V198.99C349.365 198.979 349.267 198.963 349.114 198.942C348.965 198.917 348.807 198.905 348.64 198.905C348.242 198.905 347.887 198.988 347.575 199.155C347.266 199.319 347.021 199.546 346.84 199.837C346.662 200.125 346.573 200.453 346.573 200.822V206H345.316ZM354.079 206.17C353.29 206.17 352.61 205.996 352.039 205.648C351.47 205.297 351.032 204.807 350.723 204.178C350.418 203.546 350.265 202.811 350.265 201.973C350.265 201.135 350.418 200.396 350.723 199.757C351.032 199.114 351.462 198.614 352.012 198.255C352.566 197.893 353.212 197.712 353.951 197.712C354.377 197.712 354.798 197.783 355.213 197.925C355.629 198.067 356.007 198.298 356.348 198.617C356.689 198.933 356.961 199.352 357.163 199.874C357.365 200.396 357.467 201.039 357.467 201.803V202.335H351.16V201.249H356.188C356.188 200.787 356.096 200.375 355.911 200.013C355.73 199.651 355.471 199.365 355.133 199.155C354.8 198.946 354.405 198.841 353.951 198.841C353.45 198.841 353.017 198.965 352.651 199.214C352.289 199.459 352.01 199.778 351.815 200.173C351.62 200.567 351.522 200.989 351.522 201.44V202.165C351.522 202.783 351.628 203.306 351.842 203.736C352.058 204.162 352.358 204.487 352.742 204.711C353.125 204.931 353.571 205.041 354.079 205.041C354.409 205.041 354.707 204.995 354.974 204.903C355.244 204.807 355.476 204.665 355.671 204.477C355.867 204.285 356.018 204.047 356.124 203.763L357.339 204.104C357.211 204.516 356.996 204.878 356.694 205.19C356.392 205.499 356.019 205.741 355.576 205.915C355.132 206.085 354.633 206.17 354.079 206.17Z" fill="white"/>
<path d="M294.398 376.651L293.269 376.97C293.198 376.782 293.093 376.599 292.955 376.422C292.82 376.24 292.635 376.091 292.401 375.974C292.166 375.857 291.866 375.798 291.501 375.798C291 375.798 290.583 375.914 290.249 376.145C289.919 376.372 289.753 376.661 289.753 377.013C289.753 377.325 289.867 377.572 290.094 377.753C290.322 377.934 290.677 378.085 291.16 378.206L292.374 378.504C293.106 378.682 293.651 378.953 294.01 379.319C294.368 379.681 294.548 380.148 294.548 380.72C294.548 381.189 294.413 381.608 294.143 381.977C293.876 382.347 293.503 382.638 293.024 382.851C292.545 383.064 291.987 383.17 291.351 383.17C290.517 383.17 289.826 382.989 289.279 382.627C288.733 382.265 288.386 381.736 288.241 381.04L289.434 380.741C289.548 381.182 289.762 381.512 290.078 381.732C290.398 381.952 290.815 382.062 291.33 382.062C291.916 382.062 292.381 381.938 292.726 381.69C293.074 381.437 293.248 381.136 293.248 380.784C293.248 380.5 293.148 380.262 292.95 380.07C292.751 379.875 292.445 379.729 292.033 379.634L290.67 379.314C289.92 379.136 289.37 378.861 289.018 378.488C288.67 378.112 288.496 377.641 288.496 377.077C288.496 376.615 288.626 376.207 288.885 375.852C289.148 375.496 289.505 375.218 289.956 375.015C290.41 374.813 290.925 374.712 291.501 374.712C292.31 374.712 292.946 374.889 293.408 375.244C293.873 375.599 294.203 376.068 294.398 376.651ZM296.44 383V374.818H297.654V376.097H297.761C297.931 375.66 298.207 375.321 298.586 375.079C298.966 374.834 299.423 374.712 299.955 374.712C300.495 374.712 300.944 374.834 301.303 375.079C301.665 375.321 301.948 375.66 302.15 376.097H302.235C302.445 375.674 302.759 375.338 303.178 375.09C303.597 374.838 304.1 374.712 304.686 374.712C305.417 374.712 306.015 374.941 306.481 375.399C306.946 375.853 307.178 376.562 307.178 377.524V383H305.921V377.524C305.921 376.92 305.756 376.489 305.426 376.23C305.096 375.971 304.707 375.841 304.259 375.841C303.684 375.841 303.238 376.015 302.922 376.363C302.606 376.707 302.448 377.144 302.448 377.673V383H301.17V377.396C301.17 376.931 301.019 376.556 300.717 376.272C300.415 375.985 300.026 375.841 299.551 375.841C299.224 375.841 298.919 375.928 298.634 376.102C298.354 376.276 298.127 376.517 297.953 376.826C297.782 377.132 297.697 377.485 297.697 377.886V383H296.44ZM311.885 383.192C311.366 383.192 310.896 383.094 310.473 382.899C310.05 382.7 309.715 382.414 309.466 382.041C309.218 381.665 309.093 381.21 309.093 380.678C309.093 380.209 309.186 379.829 309.37 379.538C309.555 379.243 309.802 379.012 310.111 378.845C310.42 378.678 310.761 378.554 311.134 378.472C311.51 378.387 311.888 378.32 312.268 378.27C312.765 378.206 313.168 378.158 313.477 378.126C313.79 378.091 314.017 378.032 314.159 377.95C314.305 377.869 314.378 377.727 314.378 377.524V377.482C314.378 376.956 314.234 376.548 313.946 376.256C313.662 375.965 313.23 375.82 312.652 375.82C312.052 375.82 311.581 375.951 311.24 376.214C310.899 376.477 310.659 376.757 310.521 377.055L309.328 376.629C309.541 376.132 309.825 375.745 310.18 375.468C310.539 375.187 310.929 374.992 311.352 374.882C311.778 374.768 312.197 374.712 312.609 374.712C312.872 374.712 313.174 374.744 313.515 374.808C313.859 374.868 314.191 374.994 314.511 375.186C314.834 375.377 315.102 375.667 315.315 376.054C315.528 376.441 315.635 376.96 315.635 377.609V383H314.378V381.892H314.314C314.228 382.07 314.086 382.26 313.887 382.462C313.689 382.664 313.424 382.837 313.094 382.979C312.764 383.121 312.36 383.192 311.885 383.192ZM312.076 382.062C312.574 382.062 312.993 381.965 313.333 381.77C313.678 381.574 313.937 381.322 314.111 381.013C314.289 380.704 314.378 380.379 314.378 380.038V378.888C314.324 378.952 314.207 379.01 314.026 379.064C313.848 379.113 313.642 379.158 313.408 379.197C313.177 379.232 312.952 379.264 312.732 379.293C312.515 379.317 312.339 379.339 312.204 379.357C311.878 379.399 311.572 379.468 311.288 379.564C311.007 379.657 310.78 379.797 310.606 379.985C310.436 380.17 310.351 380.422 310.351 380.741C310.351 381.178 310.512 381.509 310.835 381.732C311.162 381.952 311.576 382.062 312.076 382.062ZM317.929 383V374.818H319.144V376.054H319.229C319.378 375.649 319.648 375.321 320.038 375.069C320.429 374.816 320.869 374.69 321.359 374.69C321.452 374.69 321.567 374.692 321.706 374.696C321.844 374.699 321.949 374.705 322.02 374.712V375.99C321.977 375.979 321.88 375.963 321.727 375.942C321.578 375.917 321.42 375.905 321.253 375.905C320.855 375.905 320.5 375.988 320.188 376.155C319.879 376.319 319.634 376.546 319.453 376.837C319.275 377.125 319.186 377.453 319.186 377.822V383H317.929ZM327.581 374.818V375.884H323.341V374.818H327.581ZM324.577 372.858H325.834V380.656C325.834 381.011 325.885 381.278 325.988 381.455C326.095 381.629 326.23 381.746 326.393 381.807C326.56 381.864 326.736 381.892 326.921 381.892C327.059 381.892 327.173 381.885 327.261 381.871C327.35 381.853 327.421 381.839 327.475 381.828L327.73 382.957C327.645 382.989 327.526 383.021 327.373 383.053C327.221 383.089 327.027 383.107 326.793 383.107C326.438 383.107 326.09 383.03 325.749 382.877C325.411 382.725 325.131 382.492 324.907 382.18C324.687 381.867 324.577 381.473 324.577 380.997V372.858ZM332.708 383.17C331.941 383.17 331.28 382.989 330.726 382.627C330.173 382.265 329.746 381.766 329.448 381.13C329.15 380.495 329.001 379.768 329.001 378.952C329.001 378.121 329.153 377.387 329.459 376.752C329.768 376.113 330.197 375.614 330.748 375.255C331.302 374.893 331.948 374.712 332.687 374.712C333.262 374.712 333.78 374.818 334.242 375.031C334.704 375.244 335.082 375.543 335.377 375.926C335.671 376.31 335.854 376.757 335.925 377.268H334.668C334.572 376.896 334.359 376.565 334.029 376.278C333.702 375.987 333.262 375.841 332.708 375.841C332.218 375.841 331.788 375.969 331.419 376.224C331.053 376.477 330.767 376.833 330.561 377.295C330.359 377.753 330.258 378.291 330.258 378.909C330.258 379.541 330.357 380.092 330.556 380.56C330.758 381.029 331.043 381.393 331.408 381.652C331.778 381.912 332.211 382.041 332.708 382.041C333.035 382.041 333.331 381.984 333.598 381.871C333.864 381.757 334.089 381.594 334.274 381.381C334.459 381.168 334.59 380.912 334.668 380.614H335.925C335.854 381.097 335.679 381.532 335.398 381.919C335.121 382.302 334.753 382.608 334.295 382.835C333.841 383.059 333.312 383.17 332.708 383.17ZM341.087 383.17C340.348 383.17 339.7 382.995 339.143 382.643C338.589 382.292 338.155 381.8 337.843 381.168C337.534 380.536 337.38 379.797 337.38 378.952C337.38 378.099 337.534 377.355 337.843 376.72C338.155 376.084 338.589 375.591 339.143 375.239C339.7 374.887 340.348 374.712 341.087 374.712C341.826 374.712 342.472 374.887 343.026 375.239C343.583 375.591 344.017 376.084 344.326 376.72C344.638 377.355 344.794 378.099 344.794 378.952C344.794 379.797 344.638 380.536 344.326 381.168C344.017 381.8 343.583 382.292 343.026 382.643C342.472 382.995 341.826 383.17 341.087 383.17ZM341.087 382.041C341.648 382.041 342.11 381.897 342.472 381.61C342.834 381.322 343.102 380.944 343.276 380.475C343.45 380.006 343.537 379.499 343.537 378.952C343.537 378.405 343.45 377.895 343.276 377.423C343.102 376.951 342.834 376.569 342.472 376.278C342.11 375.987 341.648 375.841 341.087 375.841C340.526 375.841 340.064 375.987 339.702 376.278C339.34 376.569 339.072 376.951 338.898 377.423C338.724 377.895 338.637 378.405 338.637 378.952C338.637 379.499 338.724 380.006 338.898 380.475C339.072 380.944 339.34 381.322 339.702 381.61C340.064 381.897 340.526 382.041 341.087 382.041ZM347.97 378.078V383H346.713V374.818H347.928V376.097H348.034C348.226 375.681 348.517 375.347 348.908 375.095C349.298 374.839 349.803 374.712 350.421 374.712C350.975 374.712 351.459 374.825 351.875 375.053C352.29 375.276 352.613 375.617 352.844 376.075C353.075 376.53 353.191 377.105 353.191 377.801V383H351.933V377.886C351.933 377.244 351.767 376.743 351.433 376.384C351.099 376.022 350.641 375.841 350.058 375.841C349.657 375.841 349.298 375.928 348.982 376.102C348.67 376.276 348.423 376.53 348.242 376.864C348.061 377.197 347.97 377.602 347.97 378.078ZM359.046 374.818V375.884H354.806V374.818H359.046ZM356.042 372.858H357.299V380.656C357.299 381.011 357.35 381.278 357.453 381.455C357.56 381.629 357.695 381.746 357.858 381.807C358.025 381.864 358.201 381.892 358.385 381.892C358.524 381.892 358.638 381.885 358.726 381.871C358.815 381.853 358.886 381.839 358.939 381.828L359.195 382.957C359.11 382.989 358.991 383.021 358.838 383.053C358.685 383.089 358.492 383.107 358.258 383.107C357.902 383.107 357.554 383.03 357.214 382.877C356.876 382.725 356.596 382.492 356.372 382.18C356.152 381.867 356.042 381.473 356.042 380.997V372.858ZM360.937 383V374.818H362.151V376.054H362.237C362.386 375.649 362.656 375.321 363.046 375.069C363.437 374.816 363.877 374.69 364.367 374.69C364.46 374.69 364.575 374.692 364.714 374.696C364.852 374.699 364.957 374.705 365.028 374.712V375.99C364.985 375.979 364.888 375.963 364.735 375.942C364.586 375.917 364.428 375.905 364.261 375.905C363.863 375.905 363.508 375.988 363.195 376.155C362.886 376.319 362.641 376.546 362.46 376.837C362.283 377.125 362.194 377.453 362.194 377.822V383H360.937ZM368.926 383.192C368.407 383.192 367.937 383.094 367.514 382.899C367.091 382.7 366.756 382.414 366.507 382.041C366.259 381.665 366.134 381.21 366.134 380.678C366.134 380.209 366.227 379.829 366.411 379.538C366.596 379.243 366.843 379.012 367.152 378.845C367.461 378.678 367.802 378.554 368.175 378.472C368.551 378.387 368.929 378.32 369.309 378.27C369.806 378.206 370.209 378.158 370.518 378.126C370.831 378.091 371.058 378.032 371.2 377.95C371.346 377.869 371.419 377.727 371.419 377.524V377.482C371.419 376.956 371.275 376.548 370.987 376.256C370.703 375.965 370.272 375.82 369.693 375.82C369.093 375.82 368.622 375.951 368.281 376.214C367.94 376.477 367.7 376.757 367.562 377.055L366.369 376.629C366.582 376.132 366.866 375.745 367.221 375.468C367.58 375.187 367.97 374.992 368.393 374.882C368.819 374.768 369.238 374.712 369.65 374.712C369.913 374.712 370.215 374.744 370.556 374.808C370.9 374.868 371.232 374.994 371.552 375.186C371.875 375.377 372.143 375.667 372.356 376.054C372.569 376.441 372.676 376.96 372.676 377.609V383H371.419V381.892H371.355C371.269 382.07 371.127 382.26 370.928 382.462C370.73 382.664 370.465 382.837 370.135 382.979C369.805 383.121 369.401 383.192 368.926 383.192ZM369.117 382.062C369.615 382.062 370.034 381.965 370.374 381.77C370.719 381.574 370.978 381.322 371.152 381.013C371.33 380.704 371.419 380.379 371.419 380.038V378.888C371.365 378.952 371.248 379.01 371.067 379.064C370.889 379.113 370.683 379.158 370.449 379.197C370.218 379.232 369.993 379.264 369.773 379.293C369.556 379.317 369.38 379.339 369.245 379.357C368.919 379.399 368.613 379.468 368.329 379.564C368.048 379.657 367.821 379.797 367.647 379.985C367.477 380.17 367.392 380.422 367.392 380.741C367.392 381.178 367.553 381.509 367.876 381.732C368.203 381.952 368.617 382.062 369.117 382.062ZM378.294 383.17C377.527 383.17 376.866 382.989 376.312 382.627C375.758 382.265 375.332 381.766 375.034 381.13C374.736 380.495 374.587 379.768 374.587 378.952C374.587 378.121 374.739 377.387 375.045 376.752C375.354 376.113 375.783 375.614 376.334 375.255C376.888 374.893 377.534 374.712 378.273 374.712C378.848 374.712 379.366 374.818 379.828 375.031C380.29 375.244 380.668 375.543 380.963 375.926C381.257 376.31 381.44 376.757 381.511 377.268H380.254C380.158 376.896 379.945 376.565 379.615 376.278C379.288 375.987 378.848 375.841 378.294 375.841C377.804 375.841 377.374 375.969 377.005 376.224C376.639 376.477 376.353 376.833 376.147 377.295C375.945 377.753 375.844 378.291 375.844 378.909C375.844 379.541 375.943 380.092 376.142 380.56C376.344 381.029 376.628 381.393 376.994 381.652C377.364 381.912 377.797 382.041 378.294 382.041C378.621 382.041 378.917 381.984 379.184 381.871C379.45 381.757 379.675 381.594 379.86 381.381C380.045 381.168 380.176 380.912 380.254 380.614H381.511C381.44 381.097 381.264 381.532 380.984 381.919C380.707 382.302 380.339 382.608 379.881 382.835C379.427 383.059 378.898 383.17 378.294 383.17ZM386.907 374.818V375.884H382.667V374.818H386.907ZM383.903 372.858H385.16V380.656C385.16 381.011 385.212 381.278 385.315 381.455C385.421 381.629 385.556 381.746 385.719 381.807C385.886 381.864 386.062 381.892 386.247 381.892C386.385 381.892 386.499 381.885 386.588 381.871C386.676 381.853 386.747 381.839 386.801 381.828L387.056 382.957C386.971 382.989 386.852 383.021 386.7 383.053C386.547 383.089 386.353 383.107 386.119 383.107C385.764 383.107 385.416 383.03 385.075 382.877C384.738 382.725 384.457 382.492 384.233 382.18C384.013 381.867 383.903 381.473 383.903 380.997V372.858Z" fill="white"/>
<rect x="269" y="15.4" width="138.6" height="71.5" rx="4" fill="url(#paint3_linear_62_29)"/>
<rect x="311.3" y="149" width="53.98" height="28.3395" rx="4" fill="url(#paint4_linear_62_29)"/>
<rect x="148" y="32" width="59.4491" height="25.0312" rx="4" fill="url(#paint5_linear_62_29)"/>
<g clip-path="url(#clip0_62_29)">
<path d="M337.789 239.1L337.014 241.743V318.427L337.789 319.203L373.279 298.163L337.789 239.1Z" fill="#0D60DA"/>
<path d="M337.789 239.1L302.3 298.163L337.789 319.204V281.983V239.1Z" fill="#287EFF"/>
<path d="M337.789 325.943L337.352 326.477V353.794L337.789 355.074L373.3 304.913L337.789 325.943Z" fill="#0E5DD1"/>
<path d="M337.789 355.074V325.943L302.3 304.913L337.789 355.074Z" fill="#287EFF"/>
<path d="M337.789 319.203L373.278 298.163L337.789 281.983V319.203Z" fill="#0E50AF"/>
<path d="M302.3 298.163L337.789 319.203V281.983L302.3 298.163Z" fill="#1068E8"/>
</g>
<defs>
<linearGradient id="paint0_linear_62_29" x1="60.2894" y1="26.5421" x2="6.7485" y2="64.8275" gradientUnits="userSpaceOnUse">
<stop stop-color="#0D6EFD"/>
<stop offset="1" stop-color="#103B7B"/>
</linearGradient>
<linearGradient id="paint1_linear_62_29" x1="60.9905" y1="-14.302" x2="-24.7314" y2="-9.15675" gradientUnits="userSpaceOnUse">
<stop stop-color="#0067FF"/>
<stop offset="1" stop-color="#3F8CFF"/>
</linearGradient>
<linearGradient id="paint2_linear_62_29" x1="40.3799" y1="40.3799" x2="36.8699" y2="-19.7004" gradientUnits="userSpaceOnUse">
<stop stop-color="#0D6EFD"/>
<stop offset="1" stop-color="#103B7B"/>
</linearGradient>
<linearGradient id="paint3_linear_62_29" x1="345.144" y1="30.9833" x2="298.183" y2="57.4472" gradientUnits="userSpaceOnUse">
<stop stop-color="#0D6EFD"/>
<stop offset="1" stop-color="#0E4FAE"/>
</linearGradient>
<linearGradient id="paint4_linear_62_29" x1="340.956" y1="155.177" x2="322.513" y2="165.389" gradientUnits="userSpaceOnUse">
<stop stop-color="#0D6EFD"/>
<stop offset="1" stop-color="#0E4FAE"/>
</linearGradient>
<linearGradient id="paint5_linear_62_29" x1="180.66" y1="37.4555" x2="162.688" y2="49.8641" gradientUnits="userSpaceOnUse">
<stop stop-color="#0D6EFD"/>
<stop offset="1" stop-color="#0E4FAE"/>
</linearGradient>
<clipPath id="clip0_62_29">
<rect width="71" height="116" fill="white" transform="translate(302.3 239)"/>
</clipPath>
</defs>
</svg>
