<svg width="419" height="411" viewBox="0 0 419 411" fill="none" xmlns="http://www.w3.org/2000/svg">
<rect width="50.7551" height="50.6" transform="matrix(0.866906 -0.498472 2.21205e-08 1 44.0001 50.6)" fill="url(#paint0_linear_62_29)"/>
<rect width="50.7551" height="50.6" transform="matrix(0.866906 0.498472 -2.21205e-08 1 0 25.3)" fill="url(#paint1_linear_62_29)"/>
<rect width="50.7551" height="50.7551" transform="matrix(0.866906 -0.498472 0.866906 0.498472 0 25.3)" fill="url(#paint2_linear_62_29)"/>
<path d="M340.175 114.655V109.818H341.432V118H340.175V116.615H340.089C339.898 117.031 339.599 117.384 339.195 117.675C338.79 117.963 338.278 118.107 337.66 118.107C337.149 118.107 336.695 117.995 336.297 117.771C335.899 117.544 335.587 117.203 335.359 116.748C335.132 116.29 335.018 115.713 335.018 115.017V109.818H336.276V114.932C336.276 115.528 336.442 116.004 336.776 116.359C337.114 116.714 337.543 116.892 338.065 116.892C338.378 116.892 338.696 116.812 339.019 116.652C339.346 116.493 339.619 116.248 339.839 115.917C340.063 115.587 340.175 115.166 340.175 114.655ZM349.53 111.651L348.4 111.97C348.329 111.782 348.225 111.599 348.086 111.422C347.951 111.24 347.767 111.091 347.532 110.974C347.298 110.857 346.998 110.798 346.632 110.798C346.131 110.798 345.714 110.914 345.38 111.145C345.05 111.372 344.885 111.661 344.885 112.013C344.885 112.325 344.998 112.572 345.226 112.753C345.453 112.934 345.808 113.085 346.291 113.206L347.506 113.504C348.237 113.682 348.782 113.953 349.141 114.319C349.5 114.681 349.679 115.148 349.679 115.72C349.679 116.189 349.544 116.608 349.274 116.977C349.008 117.347 348.635 117.638 348.155 117.851C347.676 118.064 347.118 118.17 346.483 118.17C345.648 118.17 344.958 117.989 344.411 117.627C343.864 117.265 343.518 116.736 343.372 116.04L344.565 115.741C344.679 116.182 344.894 116.512 345.21 116.732C345.529 116.952 345.947 117.062 346.462 117.062C347.047 117.062 347.513 116.938 347.857 116.69C348.205 116.437 348.379 116.136 348.379 115.784C348.379 115.5 348.28 115.262 348.081 115.07C347.882 114.875 347.577 114.729 347.165 114.634L345.801 114.314C345.052 114.136 344.501 113.861 344.15 113.488C343.802 113.112 343.628 112.641 343.628 112.077C343.628 111.615 343.757 111.207 344.017 110.852C344.279 110.496 344.636 110.218 345.087 110.015C345.542 109.813 346.057 109.712 346.632 109.712C347.442 109.712 348.077 109.889 348.539 110.244C349.004 110.599 349.334 111.068 349.53 111.651ZM355.002 118.17C354.213 118.17 353.533 117.996 352.961 117.648C352.393 117.297 351.955 116.807 351.646 116.178C351.34 115.546 351.188 114.811 351.188 113.973C351.188 113.135 351.34 112.396 351.646 111.757C351.955 111.114 352.384 110.614 352.935 110.255C353.489 109.893 354.135 109.712 354.874 109.712C355.3 109.712 355.721 109.783 356.136 109.925C356.552 110.067 356.93 110.298 357.271 110.617C357.612 110.933 357.883 111.352 358.086 111.874C358.288 112.396 358.389 113.039 358.389 113.803V114.335H352.083V113.249H357.111C357.111 112.787 357.019 112.375 356.834 112.013C356.653 111.651 356.394 111.365 356.056 111.155C355.722 110.946 355.328 110.841 354.874 110.841C354.373 110.841 353.94 110.965 353.574 111.214C353.212 111.459 352.933 111.778 352.738 112.173C352.542 112.567 352.445 112.989 352.445 113.44V114.165C352.445 114.783 352.551 115.306 352.764 115.736C352.981 116.162 353.281 116.487 353.665 116.711C354.048 116.931 354.494 117.041 355.002 117.041C355.332 117.041 355.63 116.995 355.896 116.903C356.166 116.807 356.399 116.665 356.594 116.477C356.79 116.285 356.94 116.047 357.047 115.763L358.262 116.104C358.134 116.516 357.919 116.878 357.617 117.19C357.315 117.499 356.942 117.741 356.498 117.915C356.054 118.085 355.556 118.17 355.002 118.17ZM360.302 118V109.818H361.516V111.054H361.601C361.751 110.649 362.02 110.321 362.411 110.069C362.802 109.816 363.242 109.69 363.732 109.69C363.824 109.69 363.94 109.692 364.078 109.696C364.217 109.699 364.322 109.705 364.393 109.712V110.99C364.35 110.979 364.252 110.963 364.1 110.942C363.95 110.917 363.792 110.905 363.626 110.905C363.228 110.905 362.873 110.988 362.56 111.155C362.251 111.319 362.006 111.546 361.825 111.837C361.648 112.125 361.559 112.453 361.559 112.822V118H360.302Z" fill="white"/>
<path d="M18.581 132H17.196L21.2017 121.091H22.5653L26.571 132H25.1861L21.9261 122.817H21.8409L18.581 132ZM19.0923 127.739H24.6747V128.911H19.0923V127.739ZM29.5913 121.091V132H28.2702V121.091H29.5913ZM39.3778 132.17C38.6959 132.17 38.094 131.998 37.572 131.654C37.05 131.306 36.6416 130.816 36.3469 130.184C36.0521 129.548 35.9047 128.797 35.9047 127.93C35.9047 127.071 36.0521 126.325 36.3469 125.693C36.6416 125.061 37.0518 124.573 37.5773 124.228C38.1029 123.884 38.7101 123.712 39.3991 123.712C39.9317 123.712 40.3525 123.8 40.6615 123.978C40.974 124.152 41.2119 124.351 41.3753 124.575C41.5422 124.795 41.6718 124.976 41.7641 125.118H41.8707V121.091H43.1278V132H41.9133V130.743H41.7641C41.6718 130.892 41.5404 131.08 41.3699 131.308C41.1995 131.531 40.9562 131.732 40.6402 131.909C40.3241 132.083 39.9033 132.17 39.3778 132.17ZM39.5482 131.041C40.0525 131.041 40.4786 130.91 40.8266 130.647C41.1746 130.381 41.4392 130.013 41.6203 129.544C41.8014 129.072 41.892 128.527 41.892 127.909C41.892 127.298 41.8032 126.764 41.6256 126.306C41.4481 125.844 41.1853 125.485 40.8373 125.23C40.4893 124.971 40.0596 124.841 39.5482 124.841C39.0155 124.841 38.5716 124.978 38.2165 125.251C37.865 125.521 37.6004 125.888 37.4229 126.354C37.2488 126.815 37.1618 127.334 37.1618 127.909C37.1618 128.491 37.2506 129.021 37.4282 129.496C37.6093 129.969 37.8756 130.345 38.2272 130.626C38.5823 130.903 39.0226 131.041 39.5482 131.041ZM48.0123 132.192C47.4939 132.192 47.0233 132.094 46.6008 131.899C46.1782 131.7 45.8426 131.414 45.594 131.041C45.3454 130.665 45.2211 130.21 45.2211 129.678C45.2211 129.209 45.3135 128.829 45.4981 128.538C45.6828 128.243 45.9296 128.012 46.2385 127.845C46.5475 127.678 46.8884 127.554 47.2613 127.472C47.6377 127.387 48.0159 127.32 48.3959 127.27C48.893 127.206 49.2961 127.158 49.605 127.126C49.9175 127.091 50.1448 127.032 50.2868 126.95C50.4324 126.869 50.5052 126.727 50.5052 126.524V126.482C50.5052 125.956 50.3614 125.548 50.0738 125.256C49.7897 124.965 49.3582 124.82 48.7794 124.82C48.1792 124.82 47.7087 124.951 47.3678 125.214C47.0269 125.477 46.7872 125.757 46.6487 126.055L45.4555 125.629C45.6686 125.132 45.9527 124.745 46.3078 124.468C46.6665 124.187 47.0571 123.992 47.4797 123.882C47.9058 123.768 48.3248 123.712 48.7368 123.712C48.9996 123.712 49.3014 123.744 49.6423 123.808C49.9868 123.868 50.3188 123.994 50.6384 124.186C50.9616 124.377 51.2297 124.667 51.4427 125.054C51.6558 125.441 51.7623 125.96 51.7623 126.609V132H50.5052V130.892H50.4413C50.3561 131.07 50.214 131.26 50.0152 131.462C49.8163 131.664 49.5518 131.837 49.2215 131.979C48.8912 132.121 48.4882 132.192 48.0123 132.192ZM48.2041 131.062C48.7013 131.062 49.1203 130.965 49.4612 130.77C49.8057 130.574 50.0649 130.322 50.2389 130.013C50.4165 129.704 50.5052 129.379 50.5052 129.038V127.888C50.452 127.952 50.3348 128.01 50.1537 128.064C49.9761 128.113 49.7702 128.158 49.5358 128.197C49.305 128.232 49.0795 128.264 48.8593 128.293C48.6427 128.317 48.4669 128.339 48.3319 128.357C48.0052 128.399 47.6998 128.468 47.4157 128.564C47.1352 128.657 46.9079 128.797 46.7339 128.985C46.5635 129.17 46.4782 129.422 46.4782 129.741C46.4782 130.178 46.6398 130.509 46.963 130.732C47.2897 130.952 47.7034 131.062 48.2041 131.062ZM54.0568 135.068V123.818H55.2713V125.118H55.4205C55.5128 124.976 55.6406 124.795 55.804 124.575C55.9709 124.351 56.2088 124.152 56.5178 123.978C56.8303 123.8 57.2528 123.712 57.7855 123.712C58.4744 123.712 59.0817 123.884 59.6072 124.228C60.1328 124.573 60.543 125.061 60.8377 125.693C61.1325 126.325 61.2798 127.071 61.2798 127.93C61.2798 128.797 61.1325 129.548 60.8377 130.184C60.543 130.816 60.1346 131.306 59.6126 131.654C59.0906 131.998 58.4886 132.17 57.8068 132.17C57.2813 132.17 56.8604 132.083 56.5444 131.909C56.2283 131.732 55.9851 131.531 55.8146 131.308C55.6442 131.08 55.5128 130.892 55.4205 130.743H55.3139V135.068H54.0568ZM55.2926 127.909C55.2926 128.527 55.3832 129.072 55.5643 129.544C55.7454 130.013 56.0099 130.381 56.358 130.647C56.706 130.91 57.1321 131.041 57.6364 131.041C58.1619 131.041 58.6005 130.903 58.9521 130.626C59.3072 130.345 59.5735 129.969 59.7511 129.496C59.9322 129.021 60.0227 128.491 60.0227 127.909C60.0227 127.334 59.9339 126.815 59.7564 126.354C59.5824 125.888 59.3178 125.521 58.9627 125.251C58.6112 124.978 58.169 124.841 57.6364 124.841C57.125 124.841 56.6953 124.971 56.3473 125.23C55.9993 125.485 55.7365 125.844 55.5589 126.306C55.3814 126.764 55.2926 127.298 55.2926 127.909ZM63.1974 135.068V123.818H64.4119V125.118H64.5611C64.6534 124.976 64.7813 124.795 64.9446 124.575C65.1115 124.351 65.3494 124.152 65.6584 123.978C65.9709 123.8 66.3935 123.712 66.9261 123.712C67.6151 123.712 68.2223 123.884 68.7479 124.228C69.2734 124.573 69.6836 125.061 69.9783 125.693C70.2731 126.325 70.4205 127.071 70.4205 127.93C70.4205 128.797 70.2731 129.548 69.9783 130.184C69.6836 130.816 69.2752 131.306 68.7532 131.654C68.2312 131.998 67.6293 132.17 66.9474 132.17C66.4219 132.17 66.0011 132.083 65.685 131.909C65.369 131.732 65.1257 131.531 64.9553 131.308C64.7848 131.08 64.6534 130.892 64.5611 130.743H64.4545V135.068H63.1974ZM64.4332 127.909C64.4332 128.527 64.5238 129.072 64.7049 129.544C64.886 130.013 65.1506 130.381 65.4986 130.647C65.8466 130.91 66.2727 131.041 66.777 131.041C67.3026 131.041 67.7411 130.903 68.0927 130.626C68.4478 130.345 68.7141 129.969 68.8917 129.496C69.0728 129.021 69.1634 128.491 69.1634 127.909C69.1634 127.334 69.0746 126.815 68.897 126.354C68.723 125.888 68.4585 125.521 68.1033 125.251C67.7518 124.978 67.3097 124.841 66.777 124.841C66.2656 124.841 65.8359 124.971 65.4879 125.23C65.1399 125.485 64.8771 125.844 64.6996 126.306C64.522 126.764 64.4332 127.298 64.4332 127.909Z" fill="white"/>
<path d="M165.039 88V79.8182H166.253V81.054H166.338C166.487 80.6491 166.757 80.3207 167.148 80.0685C167.539 79.8164 167.979 79.6903 168.469 79.6903C168.561 79.6903 168.677 79.6921 168.815 79.6957C168.954 79.6992 169.058 79.7045 169.129 79.7116V80.9901C169.087 80.9794 168.989 80.9634 168.837 80.9421C168.687 80.9173 168.529 80.9048 168.362 80.9048C167.965 80.9048 167.61 80.9883 167.297 81.1552C166.988 81.3185 166.743 81.5458 166.562 81.837C166.384 82.1246 166.296 82.4531 166.296 82.8224V88H165.039ZM173.801 88.1705C173.013 88.1705 172.333 87.9964 171.761 87.6484C171.193 87.2969 170.754 86.8068 170.445 86.1783C170.14 85.5462 169.987 84.8111 169.987 83.973C169.987 83.1349 170.14 82.3963 170.445 81.7571C170.754 81.1143 171.184 80.6136 171.734 80.255C172.288 79.8928 172.935 79.7116 173.673 79.7116C174.099 79.7116 174.52 79.7827 174.936 79.9247C175.351 80.0668 175.729 80.2976 176.07 80.6172C176.411 80.9332 176.683 81.3523 176.885 81.8743C177.088 82.3963 177.189 83.0391 177.189 83.8026V84.3352H170.882V83.2486H175.91C175.91 82.7869 175.818 82.375 175.633 82.0128C175.452 81.6506 175.193 81.3647 174.856 81.1552C174.522 80.9457 174.128 80.8409 173.673 80.8409C173.172 80.8409 172.739 80.9652 172.373 81.2138C172.011 81.4588 171.732 81.7784 171.537 82.1726C171.342 82.5668 171.244 82.9893 171.244 83.4403V84.1648C171.244 84.7827 171.351 85.3065 171.564 85.7362C171.78 86.1623 172.08 86.4872 172.464 86.7109C172.848 86.9311 173.293 87.0412 173.801 87.0412C174.131 87.0412 174.43 86.995 174.696 86.9027C174.966 86.8068 175.198 86.6648 175.394 86.4766C175.589 86.2848 175.74 86.0469 175.846 85.7628L177.061 86.1037C176.933 86.5156 176.718 86.8778 176.416 87.1903C176.115 87.4993 175.742 87.7408 175.298 87.9148C174.854 88.0852 174.355 88.1705 173.801 88.1705ZM184.897 81.6506L183.767 81.9702C183.696 81.782 183.591 81.5991 183.453 81.4215C183.318 81.2404 183.133 81.0913 182.899 80.9741C182.665 80.8569 182.365 80.7983 181.999 80.7983C181.498 80.7983 181.081 80.9137 180.747 81.1445C180.417 81.3718 180.252 81.6612 180.252 82.0128C180.252 82.3253 180.365 82.5721 180.593 82.7532C180.82 82.9343 181.175 83.0852 181.658 83.206L182.872 83.5043C183.604 83.6818 184.149 83.9535 184.508 84.3192C184.866 84.6815 185.046 85.1484 185.046 85.7202C185.046 86.1889 184.911 86.608 184.641 86.9773C184.375 87.3466 184.002 87.6378 183.522 87.8509C183.043 88.0639 182.485 88.1705 181.85 88.1705C181.015 88.1705 180.324 87.9893 179.778 87.6271C179.231 87.2649 178.884 86.7358 178.739 86.0398L179.932 85.7415C180.046 86.1818 180.261 86.5121 180.577 86.7322C180.896 86.9524 181.313 87.0625 181.828 87.0625C182.414 87.0625 182.879 86.9382 183.224 86.6896C183.572 86.4375 183.746 86.1357 183.746 85.7841C183.746 85.5 183.647 85.2621 183.448 85.0703C183.249 84.875 182.943 84.7294 182.531 84.6335L181.168 84.3139C180.419 84.1364 179.868 83.8612 179.517 83.4883C179.169 83.1119 178.995 82.6413 178.995 82.0767C178.995 81.6151 179.124 81.2067 179.383 80.8516C179.646 80.4964 180.003 80.2177 180.454 80.0153C180.909 79.8129 181.424 79.7116 181.999 79.7116C182.808 79.7116 183.444 79.8892 183.906 80.2443C184.371 80.5994 184.701 81.0682 184.897 81.6506ZM192.094 84.6548V79.8182H193.351V88H192.094V86.6151H192.009C191.817 87.0305 191.519 87.3839 191.114 87.6751C190.709 87.9627 190.198 88.1065 189.58 88.1065C189.069 88.1065 188.614 87.9947 188.216 87.771C187.819 87.5437 187.506 87.2028 187.279 86.7482C187.052 86.2901 186.938 85.7131 186.938 85.017V79.8182H188.195V84.9318C188.195 85.5284 188.362 86.0043 188.696 86.3594C189.033 86.7145 189.463 86.892 189.985 86.892C190.297 86.892 190.615 86.8121 190.938 86.6523C191.265 86.4925 191.538 86.2475 191.759 85.9173C191.982 85.587 192.094 85.1662 192.094 84.6548ZM196.911 77.0909V88H195.654V77.0909H196.911ZM202.772 79.8182V80.8835H198.532V79.8182H202.772ZM199.767 77.858H201.024V85.6562C201.024 86.0114 201.076 86.2777 201.179 86.4553C201.285 86.6293 201.42 86.7464 201.584 86.8068C201.751 86.8636 201.926 86.892 202.111 86.892C202.25 86.892 202.363 86.8849 202.452 86.8707C202.541 86.853 202.612 86.8388 202.665 86.8281L202.921 87.9574C202.836 87.9893 202.717 88.0213 202.564 88.0533C202.411 88.0888 202.218 88.1065 201.983 88.1065C201.628 88.1065 201.28 88.0302 200.939 87.8775C200.602 87.7248 200.321 87.4922 200.098 87.1797C199.877 86.8672 199.767 86.473 199.767 85.9972V77.858Z" fill="white"/>
<path d="M336.946 209.491L335.817 209.811C335.745 209.623 335.641 209.44 335.502 209.262C335.367 209.081 335.183 208.932 334.948 208.815C334.714 208.698 334.414 208.639 334.048 208.639C333.547 208.639 333.13 208.754 332.796 208.985C332.466 209.212 332.301 209.502 332.301 209.853C332.301 210.166 332.415 210.413 332.642 210.594C332.869 210.775 333.224 210.926 333.707 211.047L334.922 211.345C335.653 211.523 336.198 211.794 336.557 212.16C336.916 212.522 337.095 212.989 337.095 213.561C337.095 214.03 336.96 214.449 336.69 214.818C336.424 215.187 336.051 215.478 335.571 215.692C335.092 215.905 334.535 216.011 333.899 216.011C333.064 216.011 332.374 215.83 331.827 215.468C331.28 215.106 330.934 214.576 330.788 213.88L331.981 213.582C332.095 214.023 332.31 214.353 332.626 214.573C332.945 214.793 333.363 214.903 333.878 214.903C334.464 214.903 334.929 214.779 335.273 214.53C335.621 214.278 335.795 213.976 335.795 213.625C335.795 213.341 335.696 213.103 335.497 212.911C335.298 212.716 334.993 212.57 334.581 212.474L333.217 212.155C332.468 211.977 331.917 211.702 331.566 211.329C331.218 210.953 331.044 210.482 331.044 209.917C331.044 209.456 331.173 209.047 331.433 208.692C331.695 208.337 332.052 208.058 332.503 207.856C332.958 207.654 333.473 207.552 334.048 207.552C334.858 207.552 335.493 207.73 335.955 208.085C336.42 208.44 336.75 208.909 336.946 209.491ZM342.311 216.011C341.544 216.011 340.884 215.83 340.33 215.468C339.776 215.106 339.349 214.607 339.051 213.971C338.753 213.335 338.604 212.609 338.604 211.792C338.604 210.961 338.756 210.228 339.062 209.592C339.371 208.953 339.8 208.454 340.351 208.096C340.905 207.733 341.551 207.552 342.29 207.552C342.865 207.552 343.384 207.659 343.845 207.872C344.307 208.085 344.685 208.383 344.98 208.767C345.275 209.15 345.457 209.598 345.528 210.109H344.271C344.175 209.736 343.962 209.406 343.632 209.118C343.305 208.827 342.865 208.682 342.311 208.682C341.821 208.682 341.391 208.809 341.022 209.065C340.656 209.317 340.37 209.674 340.164 210.136C339.962 210.594 339.861 211.132 339.861 211.75C339.861 212.382 339.96 212.932 340.159 213.401C340.362 213.87 340.646 214.234 341.011 214.493C341.381 214.752 341.814 214.882 342.311 214.882C342.638 214.882 342.934 214.825 343.201 214.711C343.467 214.598 343.692 214.434 343.877 214.221C344.062 214.008 344.193 213.753 344.271 213.454H345.528C345.457 213.937 345.282 214.372 345.001 214.759C344.724 215.143 344.357 215.448 343.898 215.676C343.444 215.899 342.915 216.011 342.311 216.011ZM350.69 216.011C349.951 216.011 349.303 215.835 348.746 215.484C348.192 215.132 347.759 214.64 347.446 214.008C347.137 213.376 346.983 212.638 346.983 211.792C346.983 210.94 347.137 210.196 347.446 209.56C347.759 208.925 348.192 208.431 348.746 208.08C349.303 207.728 349.951 207.552 350.69 207.552C351.429 207.552 352.075 207.728 352.629 208.08C353.186 208.431 353.62 208.925 353.929 209.56C354.241 210.196 354.397 210.94 354.397 211.792C354.397 212.638 354.241 213.376 353.929 214.008C353.62 214.64 353.186 215.132 352.629 215.484C352.075 215.835 351.429 216.011 350.69 216.011ZM350.69 214.882C351.251 214.882 351.713 214.738 352.075 214.45C352.437 214.163 352.705 213.785 352.879 213.316C353.053 212.847 353.14 212.339 353.14 211.792C353.14 211.246 353.053 210.736 352.879 210.264C352.705 209.791 352.437 209.41 352.075 209.118C351.713 208.827 351.251 208.682 350.69 208.682C350.129 208.682 349.667 208.827 349.305 209.118C348.943 209.41 348.675 209.791 348.501 210.264C348.327 210.736 348.24 211.246 348.24 211.792C348.24 212.339 348.327 212.847 348.501 213.316C348.675 213.785 348.943 214.163 349.305 214.45C349.667 214.738 350.129 214.882 350.69 214.882ZM356.316 215.841V207.659H357.531V208.895H357.616C357.765 208.49 358.035 208.161 358.426 207.909C358.816 207.657 359.257 207.531 359.747 207.531C359.839 207.531 359.954 207.533 360.093 207.536C360.231 207.54 360.336 207.545 360.407 207.552V208.831C360.365 208.82 360.267 208.804 360.114 208.783C359.965 208.758 359.807 208.746 359.64 208.746C359.242 208.746 358.887 208.829 358.575 208.996C358.266 209.159 358.021 209.386 357.84 209.678C357.662 209.965 357.573 210.294 357.573 210.663V215.841H356.316ZM365.079 216.011C364.29 216.011 363.61 215.837 363.039 215.489C362.47 215.138 362.032 214.648 361.723 214.019C361.418 213.387 361.265 212.652 361.265 211.814C361.265 210.976 361.418 210.237 361.723 209.598C362.032 208.955 362.462 208.454 363.012 208.096C363.566 207.733 364.212 207.552 364.951 207.552C365.377 207.552 365.798 207.623 366.213 207.765C366.629 207.907 367.007 208.138 367.348 208.458C367.689 208.774 367.961 209.193 368.163 209.715C368.365 210.237 368.467 210.88 368.467 211.643V212.176H362.16V211.089H367.188C367.188 210.628 367.096 210.216 366.911 209.853C366.73 209.491 366.471 209.205 366.133 208.996C365.8 208.786 365.405 208.682 364.951 208.682C364.45 208.682 364.017 208.806 363.651 209.054C363.289 209.299 363.01 209.619 362.815 210.013C362.62 210.407 362.522 210.83 362.522 211.281V212.005C362.522 212.623 362.628 213.147 362.842 213.577C363.058 214.003 363.358 214.328 363.742 214.552C364.125 214.772 364.571 214.882 365.079 214.882C365.409 214.882 365.707 214.836 365.974 214.743C366.244 214.648 366.476 214.505 366.671 214.317C366.867 214.125 367.018 213.888 367.124 213.603L368.339 213.944C368.211 214.356 367.996 214.719 367.694 215.031C367.392 215.34 367.019 215.581 366.576 215.755C366.132 215.926 365.633 216.011 365.079 216.011Z" fill="white"/>
<path d="M306.398 393.651L305.269 393.97C305.198 393.782 305.093 393.599 304.955 393.422C304.82 393.24 304.635 393.091 304.401 392.974C304.166 392.857 303.866 392.798 303.501 392.798C303 392.798 302.583 392.914 302.249 393.145C301.919 393.372 301.753 393.661 301.753 394.013C301.753 394.325 301.867 394.572 302.094 394.753C302.322 394.934 302.677 395.085 303.16 395.206L304.374 395.504C305.106 395.682 305.651 395.953 306.01 396.319C306.368 396.681 306.548 397.148 306.548 397.72C306.548 398.189 306.413 398.608 306.143 398.977C305.876 399.347 305.503 399.638 305.024 399.851C304.545 400.064 303.987 400.17 303.351 400.17C302.517 400.17 301.826 399.989 301.279 399.627C300.733 399.265 300.386 398.736 300.241 398.04L301.434 397.741C301.548 398.182 301.762 398.512 302.078 398.732C302.398 398.952 302.815 399.062 303.33 399.062C303.916 399.062 304.381 398.938 304.726 398.69C305.074 398.437 305.248 398.136 305.248 397.784C305.248 397.5 305.148 397.262 304.95 397.07C304.751 396.875 304.445 396.729 304.033 396.634L302.67 396.314C301.92 396.136 301.37 395.861 301.018 395.488C300.67 395.112 300.496 394.641 300.496 394.077C300.496 393.615 300.626 393.207 300.885 392.852C301.148 392.496 301.505 392.218 301.956 392.015C302.41 391.813 302.925 391.712 303.501 391.712C304.31 391.712 304.946 391.889 305.408 392.244C305.873 392.599 306.203 393.068 306.398 393.651ZM308.44 400V391.818H309.654V393.097H309.761C309.931 392.66 310.207 392.321 310.586 392.079C310.966 391.834 311.423 391.712 311.955 391.712C312.495 391.712 312.944 391.834 313.303 392.079C313.665 392.321 313.948 392.66 314.15 393.097H314.235C314.445 392.674 314.759 392.338 315.178 392.09C315.597 391.838 316.1 391.712 316.686 391.712C317.417 391.712 318.015 391.941 318.481 392.399C318.946 392.853 319.178 393.562 319.178 394.524V400H317.921V394.524C317.921 393.92 317.756 393.489 317.426 393.23C317.096 392.971 316.707 392.841 316.259 392.841C315.684 392.841 315.238 393.015 314.922 393.363C314.606 393.707 314.448 394.144 314.448 394.673V400H313.17V394.396C313.17 393.931 313.019 393.556 312.717 393.272C312.415 392.985 312.026 392.841 311.551 392.841C311.224 392.841 310.919 392.928 310.634 393.102C310.354 393.276 310.127 393.517 309.953 393.826C309.782 394.132 309.697 394.485 309.697 394.886V400H308.44ZM323.885 400.192C323.366 400.192 322.896 400.094 322.473 399.899C322.05 399.7 321.715 399.414 321.466 399.041C321.218 398.665 321.093 398.21 321.093 397.678C321.093 397.209 321.186 396.829 321.37 396.538C321.555 396.243 321.802 396.012 322.111 395.845C322.42 395.678 322.761 395.554 323.134 395.472C323.51 395.387 323.888 395.32 324.268 395.27C324.765 395.206 325.168 395.158 325.477 395.126C325.79 395.091 326.017 395.032 326.159 394.95C326.305 394.869 326.378 394.727 326.378 394.524V394.482C326.378 393.956 326.234 393.548 325.946 393.256C325.662 392.965 325.23 392.82 324.652 392.82C324.052 392.82 323.581 392.951 323.24 393.214C322.899 393.477 322.659 393.757 322.521 394.055L321.328 393.629C321.541 393.132 321.825 392.745 322.18 392.468C322.539 392.187 322.929 391.992 323.352 391.882C323.778 391.768 324.197 391.712 324.609 391.712C324.872 391.712 325.174 391.744 325.515 391.808C325.859 391.868 326.191 391.994 326.511 392.186C326.834 392.377 327.102 392.667 327.315 393.054C327.528 393.441 327.635 393.96 327.635 394.609V400H326.378V398.892H326.314C326.228 399.07 326.086 399.26 325.887 399.462C325.689 399.664 325.424 399.837 325.094 399.979C324.764 400.121 324.36 400.192 323.885 400.192ZM324.076 399.062C324.574 399.062 324.993 398.965 325.333 398.77C325.678 398.574 325.937 398.322 326.111 398.013C326.289 397.704 326.378 397.379 326.378 397.038V395.888C326.324 395.952 326.207 396.01 326.026 396.064C325.848 396.113 325.642 396.158 325.408 396.197C325.177 396.232 324.952 396.264 324.732 396.293C324.515 396.317 324.339 396.339 324.204 396.357C323.878 396.399 323.572 396.468 323.288 396.564C323.007 396.657 322.78 396.797 322.606 396.985C322.436 397.17 322.351 397.422 322.351 397.741C322.351 398.178 322.512 398.509 322.835 398.732C323.162 398.952 323.576 399.062 324.076 399.062ZM329.929 400V391.818H331.144V393.054H331.229C331.378 392.649 331.648 392.321 332.038 392.069C332.429 391.816 332.869 391.69 333.359 391.69C333.452 391.69 333.567 391.692 333.706 391.696C333.844 391.699 333.949 391.705 334.02 391.712V392.99C333.977 392.979 333.88 392.963 333.727 392.942C333.578 392.917 333.42 392.905 333.253 392.905C332.855 392.905 332.5 392.988 332.188 393.155C331.879 393.319 331.634 393.546 331.453 393.837C331.275 394.125 331.186 394.453 331.186 394.822V400H329.929ZM339.581 391.818V392.884H335.341V391.818H339.581ZM336.577 389.858H337.834V397.656C337.834 398.011 337.885 398.278 337.988 398.455C338.095 398.629 338.23 398.746 338.393 398.807C338.56 398.864 338.736 398.892 338.921 398.892C339.059 398.892 339.173 398.885 339.261 398.871C339.35 398.853 339.421 398.839 339.475 398.828L339.73 399.957C339.645 399.989 339.526 400.021 339.373 400.053C339.221 400.089 339.027 400.107 338.793 400.107C338.438 400.107 338.09 400.03 337.749 399.877C337.411 399.725 337.131 399.492 336.907 399.18C336.687 398.867 336.577 398.473 336.577 397.997V389.858ZM344.708 400.17C343.941 400.17 343.28 399.989 342.726 399.627C342.173 399.265 341.746 398.766 341.448 398.13C341.15 397.495 341.001 396.768 341.001 395.952C341.001 395.121 341.153 394.387 341.459 393.752C341.768 393.113 342.197 392.614 342.748 392.255C343.302 391.893 343.948 391.712 344.687 391.712C345.262 391.712 345.78 391.818 346.242 392.031C346.704 392.244 347.082 392.543 347.377 392.926C347.671 393.31 347.854 393.757 347.925 394.268H346.668C346.572 393.896 346.359 393.565 346.029 393.278C345.702 392.987 345.262 392.841 344.708 392.841C344.218 392.841 343.788 392.969 343.419 393.224C343.053 393.477 342.767 393.833 342.561 394.295C342.359 394.753 342.258 395.291 342.258 395.909C342.258 396.541 342.357 397.092 342.556 397.56C342.758 398.029 343.043 398.393 343.408 398.652C343.778 398.912 344.211 399.041 344.708 399.041C345.035 399.041 345.331 398.984 345.598 398.871C345.864 398.757 346.089 398.594 346.274 398.381C346.459 398.168 346.59 397.912 346.668 397.614H347.925C347.854 398.097 347.679 398.532 347.398 398.919C347.121 399.302 346.753 399.608 346.295 399.835C345.841 400.059 345.312 400.17 344.708 400.17ZM353.087 400.17C352.348 400.17 351.7 399.995 351.143 399.643C350.589 399.292 350.155 398.8 349.843 398.168C349.534 397.536 349.38 396.797 349.38 395.952C349.38 395.099 349.534 394.355 349.843 393.72C350.155 393.084 350.589 392.591 351.143 392.239C351.7 391.887 352.348 391.712 353.087 391.712C353.826 391.712 354.472 391.887 355.026 392.239C355.583 392.591 356.017 393.084 356.326 393.72C356.638 394.355 356.794 395.099 356.794 395.952C356.794 396.797 356.638 397.536 356.326 398.168C356.017 398.8 355.583 399.292 355.026 399.643C354.472 399.995 353.826 400.17 353.087 400.17ZM353.087 399.041C353.648 399.041 354.11 398.897 354.472 398.61C354.834 398.322 355.102 397.944 355.276 397.475C355.45 397.006 355.537 396.499 355.537 395.952C355.537 395.405 355.45 394.895 355.276 394.423C355.102 393.951 354.834 393.569 354.472 393.278C354.11 392.987 353.648 392.841 353.087 392.841C352.526 392.841 352.064 392.987 351.702 393.278C351.34 393.569 351.072 393.951 350.898 394.423C350.724 394.895 350.637 395.405 350.637 395.952C350.637 396.499 350.724 397.006 350.898 397.475C351.072 397.944 351.34 398.322 351.702 398.61C352.064 398.897 352.526 399.041 353.087 399.041ZM359.97 395.078V400H358.713V391.818H359.928V393.097H360.034C360.226 392.681 360.517 392.347 360.908 392.095C361.298 391.839 361.803 391.712 362.421 391.712C362.975 391.712 363.459 391.825 363.875 392.053C364.29 392.276 364.613 392.617 364.844 393.075C365.075 393.53 365.191 394.105 365.191 394.801V400H363.933V394.886C363.933 394.244 363.767 393.743 363.433 393.384C363.099 393.022 362.641 392.841 362.058 392.841C361.657 392.841 361.298 392.928 360.982 393.102C360.67 393.276 360.423 393.53 360.242 393.864C360.061 394.197 359.97 394.602 359.97 395.078ZM371.046 391.818V392.884H366.806V391.818H371.046ZM368.042 389.858H369.299V397.656C369.299 398.011 369.35 398.278 369.453 398.455C369.56 398.629 369.695 398.746 369.858 398.807C370.025 398.864 370.201 398.892 370.385 398.892C370.524 398.892 370.638 398.885 370.726 398.871C370.815 398.853 370.886 398.839 370.939 398.828L371.195 399.957C371.11 399.989 370.991 400.021 370.838 400.053C370.685 400.089 370.492 400.107 370.258 400.107C369.902 400.107 369.554 400.03 369.214 399.877C368.876 399.725 368.596 399.492 368.372 399.18C368.152 398.867 368.042 398.473 368.042 397.997V389.858ZM372.937 400V391.818H374.151V393.054H374.237C374.386 392.649 374.656 392.321 375.046 392.069C375.437 391.816 375.877 391.69 376.367 391.69C376.46 391.69 376.575 391.692 376.714 391.696C376.852 391.699 376.957 391.705 377.028 391.712V392.99C376.985 392.979 376.888 392.963 376.735 392.942C376.586 392.917 376.428 392.905 376.261 392.905C375.863 392.905 375.508 392.988 375.195 393.155C374.886 393.319 374.641 393.546 374.46 393.837C374.283 394.125 374.194 394.453 374.194 394.822V400H372.937ZM380.926 400.192C380.407 400.192 379.937 400.094 379.514 399.899C379.091 399.7 378.756 399.414 378.507 399.041C378.259 398.665 378.134 398.21 378.134 397.678C378.134 397.209 378.227 396.829 378.411 396.538C378.596 396.243 378.843 396.012 379.152 395.845C379.461 395.678 379.802 395.554 380.175 395.472C380.551 395.387 380.929 395.32 381.309 395.27C381.806 395.206 382.209 395.158 382.518 395.126C382.831 395.091 383.058 395.032 383.2 394.95C383.346 394.869 383.419 394.727 383.419 394.524V394.482C383.419 393.956 383.275 393.548 382.987 393.256C382.703 392.965 382.272 392.82 381.693 392.82C381.093 392.82 380.622 392.951 380.281 393.214C379.94 393.477 379.7 393.757 379.562 394.055L378.369 393.629C378.582 393.132 378.866 392.745 379.221 392.468C379.58 392.187 379.97 391.992 380.393 391.882C380.819 391.768 381.238 391.712 381.65 391.712C381.913 391.712 382.215 391.744 382.556 391.808C382.9 391.868 383.232 391.994 383.552 392.186C383.875 392.377 384.143 392.667 384.356 393.054C384.569 393.441 384.676 393.96 384.676 394.609V400H383.419V398.892H383.355C383.269 399.07 383.127 399.26 382.928 399.462C382.73 399.664 382.465 399.837 382.135 399.979C381.805 400.121 381.401 400.192 380.926 400.192ZM381.117 399.062C381.615 399.062 382.034 398.965 382.374 398.77C382.719 398.574 382.978 398.322 383.152 398.013C383.33 397.704 383.419 397.379 383.419 397.038V395.888C383.365 395.952 383.248 396.01 383.067 396.064C382.889 396.113 382.683 396.158 382.449 396.197C382.218 396.232 381.993 396.264 381.773 396.293C381.556 396.317 381.38 396.339 381.245 396.357C380.919 396.399 380.613 396.468 380.329 396.564C380.048 396.657 379.821 396.797 379.647 396.985C379.477 397.17 379.392 397.422 379.392 397.741C379.392 398.178 379.553 398.509 379.876 398.732C380.203 398.952 380.617 399.062 381.117 399.062ZM390.294 400.17C389.527 400.17 388.866 399.989 388.312 399.627C387.758 399.265 387.332 398.766 387.034 398.13C386.736 397.495 386.587 396.768 386.587 395.952C386.587 395.121 386.739 394.387 387.045 393.752C387.354 393.113 387.783 392.614 388.334 392.255C388.888 391.893 389.534 391.712 390.273 391.712C390.848 391.712 391.366 391.818 391.828 392.031C392.29 392.244 392.668 392.543 392.963 392.926C393.257 393.31 393.44 393.757 393.511 394.268H392.254C392.158 393.896 391.945 393.565 391.615 393.278C391.288 392.987 390.848 392.841 390.294 392.841C389.804 392.841 389.374 392.969 389.005 393.224C388.639 393.477 388.353 393.833 388.147 394.295C387.945 394.753 387.844 395.291 387.844 395.909C387.844 396.541 387.943 397.092 388.142 397.56C388.344 398.029 388.628 398.393 388.994 398.652C389.364 398.912 389.797 399.041 390.294 399.041C390.621 399.041 390.917 398.984 391.184 398.871C391.45 398.757 391.675 398.594 391.86 398.381C392.045 398.168 392.176 397.912 392.254 397.614H393.511C393.44 398.097 393.264 398.532 392.984 398.919C392.707 399.302 392.339 399.608 391.881 399.835C391.427 400.059 390.898 400.17 390.294 400.17ZM398.907 391.818V392.884H394.667V391.818H398.907ZM395.903 389.858H397.16V397.656C397.16 398.011 397.212 398.278 397.315 398.455C397.421 398.629 397.556 398.746 397.719 398.807C397.886 398.864 398.062 398.892 398.247 398.892C398.385 398.892 398.499 398.885 398.588 398.871C398.676 398.853 398.747 398.839 398.801 398.828L399.056 399.957C398.971 399.989 398.852 400.021 398.7 400.053C398.547 400.089 398.353 400.107 398.119 400.107C397.764 400.107 397.416 400.03 397.075 399.877C396.738 399.725 396.457 399.492 396.233 399.18C396.013 398.867 395.903 398.473 395.903 397.997V389.858Z" fill="white"/>
<rect x="280" y="15.4" width="138.6" height="71.5" rx="4" fill="url(#paint3_linear_62_29)"/>
<rect x="322.3" y="156" width="53.98" height="28.3395" rx="4" fill="url(#paint4_linear_62_29)"/>
<rect x="156.741" y="31.175" width="53.98" height="25.6405" rx="4" fill="url(#paint5_linear_62_29)"/>
<g clip-path="url(#clip0_62_29)">
<path d="M349.789 253L349.014 255.643V332.327L349.789 333.103L385.279 312.063L349.789 253Z" fill="#0D60DA"/>
<path d="M349.789 253L314.3 312.063L349.789 333.104V295.883V253Z" fill="#287EFF"/>
<path d="M349.789 339.843L349.352 340.377V367.694L349.789 368.974L385.3 318.813L349.789 339.843Z" fill="#0E5DD1"/>
<path d="M349.789 368.974V339.843L314.3 318.813L349.789 368.974Z" fill="#287EFF"/>
<path d="M349.789 333.103L385.278 312.063L349.789 295.883V333.103Z" fill="#0E50AF"/>
<path d="M314.3 312.063L349.789 333.103V295.883L314.3 312.063Z" fill="#1068E8"/>
</g>
<defs>
<linearGradient id="paint0_linear_62_29" x1="60.2894" y1="26.5421" x2="6.7485" y2="64.8275" gradientUnits="userSpaceOnUse">
<stop stop-color="#0D6EFD"/>
<stop offset="1" stop-color="#103B7B"/>
</linearGradient>
<linearGradient id="paint1_linear_62_29" x1="60.9905" y1="-14.302" x2="-24.7314" y2="-9.15675" gradientUnits="userSpaceOnUse">
<stop stop-color="#0067FF"/>
<stop offset="1" stop-color="#3F8CFF"/>
</linearGradient>
<linearGradient id="paint2_linear_62_29" x1="40.3799" y1="40.3799" x2="36.8699" y2="-19.7004" gradientUnits="userSpaceOnUse">
<stop stop-color="#0D6EFD"/>
<stop offset="1" stop-color="#103B7B"/>
</linearGradient>
<linearGradient id="paint3_linear_62_29" x1="356.144" y1="30.9833" x2="309.183" y2="57.4472" gradientUnits="userSpaceOnUse">
<stop stop-color="#0D6EFD"/>
<stop offset="1" stop-color="#0E4FAE"/>
</linearGradient>
<linearGradient id="paint4_linear_62_29" x1="351.956" y1="162.177" x2="333.513" y2="172.389" gradientUnits="userSpaceOnUse">
<stop stop-color="#0D6EFD"/>
<stop offset="1" stop-color="#0E4FAE"/>
</linearGradient>
<linearGradient id="paint5_linear_62_29" x1="186.397" y1="36.7634" x2="168.866" y2="47.4928" gradientUnits="userSpaceOnUse">
<stop stop-color="#0D6EFD"/>
<stop offset="1" stop-color="#0E4FAE"/>
</linearGradient>
<clipPath id="clip0_62_29">
<rect width="71" height="116" fill="white" transform="translate(314.3 252.9)"/>
</clipPath>
</defs>
</svg>
